<svg xmlns="http://www.w3.org/2000/svg" xmlns:xlink="http://www.w3.org/1999/xlink" width="934.303" height="1290.933" viewBox="0 0 934.303 1290.933">
  <defs>
    <style>
      .cls-1 {
        fill: url(#linear-gradient);
      }

      .cls-2, .cls-3 {
        fill: #0b9ff2;
      }

      .cls-2 {
        opacity: 0.69;
      }

      .cls-4 {
        opacity: 0.71;
        fill: url(#linear-gradient-2);
      }

      .cls-5 {
        fill: #8b77e6;
      }

      .cls-13, .cls-6 {
        fill: #e4ebf7;
      }

      .cls-10, .cls-11, .cls-14, .cls-15, .cls-16, .cls-17, .cls-18, .cls-19, .cls-20, .cls-21, .cls-22, .cls-23, .cls-24, .cls-25, .cls-26, .cls-28, .cls-29, .cls-30, .cls-31, .cls-32, .cls-33, .cls-34, .cls-35, .cls-6, .cls-7 {
        fill-rule: evenodd;
      }

      .cls-27, .cls-7 {
        fill: #a9d8fb;
      }

      .cls-8 {
        fill: #278bd5;
      }

      .cls-34, .cls-9 {
        fill: #bbbbf6;
      }

      .cls-10 {
        fill: #8dcfff;
      }

      .cls-11 {
        fill: #f4f5f9;
      }

      .cls-12, .cls-14 {
        fill: #0091ff;
      }

      .cls-15 {
        fill: #c7e7ff;
      }

      .cls-16 {
        fill: #597bf5;
      }

      .cls-17 {
        fill: #2f48d3;
      }

      .cls-18 {
        fill: #b1aec1;
      }

      .cls-19 {
        fill: #31275b;
      }

      .cls-20 {
        fill: #e76d60;
      }

      .cls-21 {
        fill: #fff;
      }

      .cls-22 {
        fill: #fcb187;
      }

      .cls-23 {
        fill: #f49677;
      }

      .cls-24 {
        fill: #443572;
      }

      .cls-25 {
        fill: #4f4d6e;
      }

      .cls-26 {
        fill: #fcccb1;
      }

      .cls-28 {
        fill: #ded8f9;
      }

      .cls-29 {
        fill: #f1effd;
      }

      .cls-30 {
        fill: #78c6ff;
      }

      .cls-31 {
        fill: #5ebafe;
      }

      .cls-32 {
        fill: #dbdbfd;
      }

      .cls-33 {
        fill: #e1f2ff;
      }

      .cls-35 {
        fill: #94d1ff;
      }
    </style>
    <linearGradient id="linear-gradient" x1="0.5" x2="0.5" y2="1" gradientUnits="objectBoundingBox">
      <stop offset="0" stop-color="#72e3dc"/>
      <stop offset="1" stop-color="#71b0e4"/>
    </linearGradient>
    <linearGradient id="linear-gradient-2" x1="0.5" x2="0.511" y2="1.537" gradientUnits="objectBoundingBox">
      <stop offset="0" stop-color="#c9f8f8"/>
      <stop offset="1" stop-color="#00dcff"/>
    </linearGradient>
  </defs>
  <g id="Group_245" data-name="Group 245" transform="translate(183 85)">
    <g id="Group_241" data-name="Group 241" transform="translate(-17 3)">
      <path id="Path_1619" data-name="Path 1619" class="cls-1" d="M0,61.71s761.913-58.905,768.095,0-127.473,252.466-127.473,554,133.692,478.24,96.564,531.535-737.186,0-737.186,0Z" transform="translate(0 -63.071)"/>
      <path id="Path_521" data-name="Path 521" class="cls-2" d="M147.622,0C224.767,0,287.3,72.8,287.3,162.605S224.767,325.211,147.622,325.211-18.35,320.539-18.35,230.735,70.477,0,147.622,0Z" transform="translate(-36.777 1184.762) rotate(-98)"/>
      <g id="Group_240" data-name="Group 240">
        <circle id="Ellipse_26" data-name="Ellipse 26" class="cls-3" cx="106" cy="106" r="106" transform="translate(0 -88)"/>
        <ellipse id="Ellipse_27" data-name="Ellipse 27" class="cls-4" cx="139" cy="138" rx="139" ry="138" transform="translate(-166 -54)"/>
      </g>
      <g id="Group_239" data-name="Group 239" transform="translate(0 -1)">
        <g id="Group_238" data-name="Group 238" transform="translate(56.032 312.778)">
          <path id="Path_1656" data-name="Path 1656" class="cls-5" d="M625.339,174.3a.471.471,0,0,1,.941,0v2.111a.471.471,0,0,1-.941,0Zm-3.195,1.714a.469.469,0,1,1,.664-.664l1.492,1.493a.469.469,0,0,1-.663.663Zm-1.051,3.473a.468.468,0,1,1,0-.936h2.11a.468.468,0,0,1,0,.936Zm1.714,3.195a.467.467,0,0,1-.664-.658l1.492-1.492a.462.462,0,0,1,.663,0,.471.471,0,0,1,0,.664Zm3.472,1.05a.471.471,0,1,1-.941,0v-2.105a.471.471,0,0,1,.941,0Zm3.195-1.708a.467.467,0,0,1-.663.658l-1.492-1.486a.471.471,0,0,1,0-.664.462.462,0,0,1,.663,0Zm1.05-3.472a.468.468,0,1,1,0,.936h-2.112a.468.468,0,0,1,0-.936Zm-1.714-3.2a.469.469,0,1,1,.663.664l-1.492,1.492a.469.469,0,0,1-.663-.663Z" transform="translate(-191.495 -40.226)"/>
          <path id="Path_1657" data-name="Path 1657" class="cls-6" d="M142.234,55.222a52.459,52.459,0,0,0-52.3,52.311h0a52.458,52.458,0,0,0,52.3,52.305h0a10.53,10.53,0,0,1,10.5,10.5h0a10.525,10.525,0,0,1-10.5,10.5h-27.37a25.6,25.6,0,0,0-25.52,25.521h0a25.593,25.593,0,0,0,25.52,25.513,22.135,22.135,0,0,1,22.07,22.07h0A40.385,40.385,0,0,0,177.2,294.207H413.576A52.464,52.464,0,0,0,465.882,241.9h0a52.462,52.462,0,0,0-52.306-52.3H376.688a10.533,10.533,0,0,1-10.5-10.5h0a10.529,10.529,0,0,1,10.5-10.5h9.371a25.593,25.593,0,0,0,25.518-25.52h0A25.59,25.59,0,0,0,386.1,117.56H383.4a22.134,22.134,0,0,1-22.071-22.069h0a40.386,40.386,0,0,0-40.268-40.269Z" transform="translate(-11.319)"/>
          <path id="Path_1658" data-name="Path 1658" class="cls-7" d="M615.5,201.831a25.281,25.281,0,1,0-25.281-25.281A25.281,25.281,0,0,0,615.5,201.831Z" transform="translate(-181.184 -32.573)"/>
          <g id="Group_223" data-name="Group 223" transform="translate(104.282 83.733)">
            <rect id="Rectangle_194" data-name="Rectangle 194" class="cls-8" width="24.492" height="7.422" transform="translate(36.376)"/>
            <rect id="Rectangle_195" data-name="Rectangle 195" class="cls-8" width="24.498" height="7.423" transform="translate(0 8.909)"/>
            <rect id="Rectangle_196" data-name="Rectangle 196" class="cls-8" width="24.493" height="7.423" transform="translate(25.662 8.909)"/>
            <rect id="Rectangle_197" data-name="Rectangle 197" class="cls-8" width="24.493" height="7.423" transform="translate(10.714 17.813)"/>
            <rect id="Rectangle_198" data-name="Rectangle 198" class="cls-8" width="24.498" height="7.423" transform="translate(0 26.722)"/>
            <rect id="Rectangle_199" data-name="Rectangle 199" class="cls-8" width="24.493" height="7.423" transform="translate(25.662 26.722)"/>
          </g>
          <rect id="Rectangle_200" data-name="Rectangle 200" class="cls-9" width="24.498" height="7.418" transform="translate(156.542 246.634)"/>
          <rect id="Rectangle_201" data-name="Rectangle 201" class="cls-9" width="24.498" height="7.418" transform="translate(182.204 246.634)"/>
          <rect id="Rectangle_202" data-name="Rectangle 202" class="cls-9" width="24.493" height="7.422" transform="translate(145.834 255.539)"/>
          <rect id="Rectangle_203" data-name="Rectangle 203" class="cls-8" width="24.493" height="7.422" transform="translate(171.495 255.539)"/>
          <rect id="Rectangle_204" data-name="Rectangle 204" class="cls-8" width="24.498" height="7.423" transform="translate(182.204 264.447)"/>
          <rect id="Rectangle_205" data-name="Rectangle 205" class="cls-9" width="24.493" height="7.423" transform="translate(145.834 273.351)"/>
          <rect id="Rectangle_206" data-name="Rectangle 206" class="cls-8" width="24.493" height="7.423" transform="translate(171.495 273.351)"/>
          <g id="Group_226" data-name="Group 226" transform="translate(177.363 76.599)">
            <path id="Path_1659" data-name="Path 1659" class="cls-10" d="M264.876,89.321H372.7a5.015,5.015,0,0,1,5,5V248.114h3.836a3.37,3.37,0,0,1,3.355,3.361v13.732a3.365,3.365,0,0,1-3.355,3.355H256.04a3.365,3.365,0,0,1-3.354-3.355V251.475a3.37,3.37,0,0,1,3.354-3.361h3.836V94.32a5.018,5.018,0,0,1,5-5Z" transform="translate(-244.077 -88.163)"/>
            <path id="Path_1660" data-name="Path 1660" class="cls-11" d="M264.409,87.569H372.232a5.01,5.01,0,0,1,5,4.994V248.74a5.01,5.01,0,0,1-5,4.994H264.409a5.01,5.01,0,0,1-5-4.994V92.563a5.01,5.01,0,0,1,5-4.994Z" transform="translate(-246.358 -87.569)"/>
            <rect id="Rectangle_207" data-name="Rectangle 207" class="cls-12" width="99.548" height="65.17" transform="translate(22.189 86.899)"/>
            <g id="Group_224" data-name="Group 224" transform="translate(22.189 9.131)">
              <rect id="Rectangle_208" data-name="Rectangle 208" class="cls-13" width="99.548" height="79.458"/>
              <path id="Path_1661" data-name="Path 1661" class="cls-14" d="M288.091,116.241v25h35.048v-25Zm0,34.821v25h35.048v-25Zm44.865,25H368v-25H332.956ZM368,141.245v-25H332.956v25Z" transform="translate(-278.274 -106.424)"/>
              <path id="Path_1662" data-name="Path 1662" class="cls-15" d="M368.691,137.225l-6.157,6.157h-16.3l20.838-20.838h1.617Zm-15.368-14.681h7.061l-20.839,20.838h-1.93v-5.13ZM327.8,174.038H315.58L327.8,161.82Zm-18.909,0H301.83L322.668,153.2h5.13v1.93ZM352.716,153.2l-15.1,15.1V153.2Z" transform="translate(-282.933 -108.562)"/>
            </g>
            <path id="Path_1663" data-name="Path 1663" class="cls-15" d="M251.884,327.852H377.378a3.363,3.363,0,0,1,3.352,3.353v13.733a3.368,3.368,0,0,1-3.352,3.36H251.884a3.369,3.369,0,0,1-3.354-3.36V331.205a3.363,3.363,0,0,1,3.354-3.353Z" transform="translate(-242.668 -169.058)"/>
            <g id="Group_225" data-name="Group 225" transform="translate(0 16.089)">
              <path id="Path_1664" data-name="Path 1664" class="cls-16" d="M336.355,227.588l-1.3.136-.8-.028-.8-.034-1.283-.238-7.332-7.5-16.854,7.423c.516,26.489-2.253,38.918-5.5,57.18h51.2c.068-7.866,3.241-19.516,3.9-25.837l2.883-29.278-16.22-8.727Z" transform="translate(-260.965 -148.543)"/>
              <path id="Path_1665" data-name="Path 1665" class="cls-17" d="M358.427,284.914h9.244a30.256,30.256,0,0,1,5.2-3.7c.733-7.485,3.121-16.746,3.689-22.136l.08-.83q-.307-3.029-.683-6.548c-.929-8.688,1.09-14.476,3.094-17.921l.392-3.978-16.22-8.727-2.554,2.236-.88,4.188s8.768,6.765,9.83,10.465-2.645,29.163-5.284,40.154c-.647,2.691-2.894,4.938-5.913,6.8Z" transform="translate(-279.938 -148.933)"/>
              <path id="Path_1666" data-name="Path 1666" class="cls-17" d="M309.655,232.767a211.946,211.946,0,0,1-2.3,37.567h0s8.6-32.177,7.649-33.056c-.744-.687-1.674-1.458-5.346-4.511Z" transform="translate(-262.617 -152.9)"/>
              <path id="Path_1667" data-name="Path 1667" class="cls-18" d="M355.448,217.043a21.354,21.354,0,0,0-17.8-.7l.931,2.814,15.725.619Z" transform="translate(-272.89 -146.783)"/>
              <path id="Path_1668" data-name="Path 1668" class="cls-19" d="M347.783,227.978l-1.3.136-1.6-.063-1.283-.238-4.926-5.04-.771.2-1.725,2.094s3.393,8.79,3.6,9.091.59.465,1.18-.193,2.435-2.821,2.435-2.821.533-.516.749.1,2.916-.948,2.916-.948l.165.59s.42-.471.794.176,2.214,3.444,2.344,3.569.709.556,1.158-.278c.4-.767,5.237-10.55,6.077-12.258l-1.913-1.033Z" transform="translate(-272.393 -148.933)"/>
              <path id="Path_1669" data-name="Path 1669" class="cls-19" d="M349.548,231.182l-1.3.136-1.6-.063-1.283-.238-.488-.5-1.152,1.815s2.372.874,2.287,2.979l-4.631,52.8h2.554l4.631-52.7c.182-2.1,2.514-2.792,2.514-2.792l-1-1.9Z" transform="translate(-274.157 -152.137)"/>
              <path id="Path_1670" data-name="Path 1670" class="cls-20" d="M348.081,198.588h0a6.781,6.781,0,0,1,6.486,7.019l-.352,8.933a6.782,6.782,0,0,1-7.02,6.486h0a6.785,6.785,0,0,1-6.486-7.02l.352-8.932a6.781,6.781,0,0,1,7.02-6.486Z" transform="translate(-273.928 -141.306)"/>
              <path id="Path_1671" data-name="Path 1671" class="cls-19" d="M347.808,230.313l.778-.1a.776.776,0,0,1,.159.448c.011.278-.005,1.1-.005,1.1-.289.091-1.817.341-1.76.125.012-.052.829-1.578.829-1.578Z" transform="translate(-276.055 -152.035)"/>
              <path id="Path_1672" data-name="Path 1672" class="cls-19" d="M352.455,230.47l-.766-.159a.789.789,0,0,0-.193.438c-.034.278-.085,1.1-.085,1.1.278.232,1.788.482,1.748.266-.011-.051-.7-1.64-.7-1.64Z" transform="translate(-277.559 -152.067)"/>
              <path id="Path_1673" data-name="Path 1673" class="cls-21" d="M360.259,218.224c.086.079.977,1.792,1.442,2.621a2.177,2.177,0,0,1,.051,1.782c-.374,1.106-5.079,10.089-5.079,10.089s-.329.477-.806-.017-4.035-6.492-4.035-6.492l7.474-7.287c.352-.413.874-.777.952-.7Z" transform="translate(-277.701 -147.964)"/>
              <path id="Path_1674" data-name="Path 1674" class="cls-21" d="M336.658,217.164c-.062.028-1.118,1.714-1.646,2.5a2.183,2.183,0,0,0-.187,1.776c.289,1.129,4.267,10.459,4.267,10.459s.29.494.806.04,4.535-6.151,4.535-6.151l-6.878-7.854c-.459-.584-.84-.8-.9-.771Z" transform="translate(-271.902 -147.607)"/>
              <path id="Path_1675" data-name="Path 1675" class="cls-20" d="M329.521,185.839c-.1,0-.2,0-.307.005h-.006a4.129,4.129,0,1,0,3.286,1.317c-.074,1.22-.477,2.678-2.037,2.6l.386-2.343a1.415,1.415,0,0,0-1.322-1.583Z" transform="translate(-268.72 -136.985)"/>
              <path id="Path_1676" data-name="Path 1676" class="cls-20" d="M373.5,192.292c.1.028.194.063.289.1h.007a4.121,4.121,0,1,1-3.524.323c-.278,1.192-.307,2.708,1.208,3.082l.3-2.361a1.416,1.416,0,0,1,1.719-1.141Z" transform="translate(-283.27 -139.165)"/>
              <path id="Path_1677" data-name="Path 1677" class="cls-22" d="M349.176,158.173h0a14.149,14.149,0,0,0-15.986,11.935l-1.844,12.7a14.144,14.144,0,0,0,11.934,15.986h0a14.146,14.146,0,0,0,15.986-11.934l1.844-12.7a14.157,14.157,0,0,0-11.934-15.992Z" transform="translate(-270.704 -127.553)"/>
              <path id="Path_1678" data-name="Path 1678" class="cls-23" d="M342.751,201.7a13.993,13.993,0,0,0,1.969.431h0a14.146,14.146,0,0,0,15.986-11.934l1.844-12.7a13.956,13.956,0,0,0-.63-6.611c-5.64-1.679-10.447-3.03-10.447-3.03s-17.785-.017-15.884,4.9l.5.818a4.771,4.771,0,0,1,4.251-.738c2.723.664,11.758,3.014,14.743,4.12s3.779,3.331,3.331,6.344-.136,4.2.607,4.7c0,0-1.146,13.7-16.276,13.7Z" transform="translate(-272.145 -130.887)"/>
              <path id="Path_1679" data-name="Path 1679" class="cls-21" d="M346.235,203.281a3.651,3.651,0,0,0,7.179,1.334h-.005a.635.635,0,0,0-.506-.737l-5.924-1.1a.637.637,0,0,0-.738.5Z" transform="translate(-275.782 -142.725)"/>
              <path id="Path_1680" data-name="Path 1680" class="cls-21" d="M347.5,207.765a3.658,3.658,0,0,0,4.1,1.027,2.265,2.265,0,0,0-1.8-1.708,2.309,2.309,0,0,0-2.3.681Z" transform="translate(-276.234 -144.167)"/>
              <path id="Path_1681" data-name="Path 1681" class="cls-21" d="M353.573,203.951,348,202.918a1.28,1.28,0,0,0,.358,1.487c.471.256,4.523.9,4.869.636a2.185,2.185,0,0,0,.346-1.09Z" transform="translate(-276.373 -142.777)"/>
              <path id="Path_1682" data-name="Path 1682" class="cls-20" d="M363.262,201.36a1.857,1.857,0,1,0,1.527,2.134,1.863,1.863,0,0,0-1.527-2.134Z" transform="translate(-280.846 -142.24)"/>
              <path id="Path_1683" data-name="Path 1683" class="cls-20" d="M339.432,197.436a1.857,1.857,0,1,0,1.527,2.134,1.864,1.864,0,0,0-1.527-2.134Z" transform="translate(-272.764 -140.909)"/>
              <path id="Path_1684" data-name="Path 1684" class="cls-19" d="M342.521,191.815a1.314,1.314,0,0,0-.249-.971,1.293,1.293,0,0,0-.857-.511,1.3,1.3,0,0,0-1.482,1.107.5.5,0,0,1-.993-.148,2.34,2.34,0,0,1,.9-1.521,2.311,2.311,0,0,1,1.714-.431,2.277,2.277,0,0,1,1.521.9,2.316,2.316,0,0,1,.437,1.714.507.507,0,0,1-.573.426.5.5,0,0,1-.42-.568ZM356.9,193.9a1.291,1.291,0,0,0-.244-.97,1.3,1.3,0,0,0-2.338.6.5.5,0,1,1-.993-.148,2.308,2.308,0,1,1,4.568.665.5.5,0,0,1-.993-.143Zm1.1-4.5a3.666,3.666,0,0,0-3.4-.51.506.506,0,0,1-.658-.273.5.5,0,0,1,.272-.652,4.684,4.684,0,0,1,4.358.613.5.5,0,0,1,.125.7.5.5,0,0,1-.693.124Zm-17.824-2.587a.5.5,0,1,1-.318-.948,4.688,4.688,0,0,1,4.358.647.5.5,0,0,1,.068.7.5.5,0,0,1-.7.073,3.662,3.662,0,0,0-3.4-.476Z" transform="translate(-273.328 -136.905)"/>
              <path id="Path_1685" data-name="Path 1685" class="cls-19" d="M331.784,180.186s2.207-.545,2.729-4.114.386-2.7.658-4.557a5.08,5.08,0,0,1,5.817-4.387c3.779.55,6.8.987,6.8.987s3.025.437,6.8.987a5.081,5.081,0,0,1,4.324,5.862c-.266,1.862-.142.982-.658,4.557s1.441,4.722,1.441,4.722c.414-2.832,1.435-3.818,1.435-3.818s.551-3.791,1.034-7.106a12.781,12.781,0,0,0-3.706-11.582,16.863,16.863,0,0,0-19.1-2.77,12.779,12.779,0,0,0-6.85,10.05c-.482,3.308-1.033,7.1-1.033,7.1s.7,1.236.3,4.068Z" transform="translate(-270.802 -127.28)"/>
              <path id="Path_1686" data-name="Path 1686" class="cls-24" d="M344.464,164.84a14.258,14.258,0,0,0,15.918,2.866s4.092-2.411,5.363-.567c0,0,2.854-7.463-3.564-9.392,0,0,1.475-.738,1.39-1.7s-2.2-3.836-8.818-2.394a2.971,2.971,0,0,0-1.9-3.065c-2.117-.687-9.193,1.714-10.878,6.572,0,0-1.373,3.569,2.491,7.678Z" transform="translate(-274.278 -124.991)"/>
              <path id="Path_1687" data-name="Path 1687" class="cls-25" d="M367.06,162.8a6.429,6.429,0,0,0-.222-1.033c-1.85.971-5.816,2.3-11.979.693-5.448-1.414-5.891-6.9-5.414-10.936a12.8,12.8,0,0,0-5.488,3.791c.011,1.981,1.027,4.857,5.51,7.888,6.35,4.285,14.38,1.17,17.592-.4Z" transform="translate(-275.031 -125.347)"/>
              <path id="Path_1688" data-name="Path 1688" class="cls-22" d="M254.6,142.253l.022,1.084a1.891,1.891,0,0,1,.925,1.067,11.993,11.993,0,0,1,.579,1.527l5.663-2.055.023-.442-.449-1.35a.411.411,0,0,1,.006-.4l-2.871-1.266Z" transform="translate(-244.727 -121.579)"/>
              <path id="Path_1689" data-name="Path 1689" class="cls-17" d="M307.8,194.68s-27.1-14.164-31.393-18.977-6.305-11.542-12.86-30.791c0,0-.238-.9-1.628-.8s-5.3,1.47-5.833,2.129a2.479,2.479,0,0,0-.642,2.236c.193.908,7.922,30.883,10.113,35.365s22.029,22.926,26.155,27.228S307.8,194.68,307.8,194.68Z" transform="translate(-244.993 -122.83)"/>
              <path id="Path_1690" data-name="Path 1690" class="cls-16" d="M260.781,144.424c-1.73.425-4.267,1.4-4.693,1.924a2.479,2.479,0,0,0-.642,2.236c.193.908,7.922,30.883,10.113,35.365s22.029,22.926,26.155,27.228c1.288,1.345,3.343.244,5.561-1.9.182-1.129.233-1.839.1-1.958-.954-.88-2.219-1.907-9.193-7.717s-17.808-15.8-19.6-19.493-7.349-23.25-9.142-29.112c-1.73-5.641,1.118-6.515,1.34-6.572Z" transform="translate(-244.993 -122.939)"/>
              <path id="Path_1691" data-name="Path 1691" class="cls-22" d="M257.779,126.134a8.426,8.426,0,0,1,2.043-4.108c.63-.664-2.4-2.5-3.575.686,0,0-1.067,1.2-1.68.852s-1.577-9.682-1.685-10.7a1.073,1.073,0,0,0-1.606-.8c-.313.289-.142,1.765-.052,3.643a21.119,21.119,0,0,1,.006,4.194c-.159.188-.59.188-1.038-.823s-2.73-6.69-3.235-6.969-1.436.239-1.351,1.192,2.605,6.595,2.7,7.418-.726.788-1.1.34-3.955-6.18-4.421-6.457-1.4.283-1.05,1.248,3.552,6.594,3.53,7.071-.642.834-1.686.1-3.041-2.513-3.433-2.531-.891,1.176.039,2.123,3.156,3.376,3.439,3.779c1.5,2.117,2.27,4.455,3.672,5.948a4.923,4.923,0,0,0,1.9,1.22,7.123,7.123,0,0,0,5.635-.369c2.922-1.583,2.4-4.126,2.945-7.049Z" transform="translate(-239.66 -111.914)"/>
              <path id="Path_1692" data-name="Path 1692" class="cls-22" d="M326.871,323.725l-1.794,1.533H310.125a5.147,5.147,0,0,1,1.56-2.429,2.274,2.274,0,0,1,.886-.187,3.13,3.13,0,0,1,1.158-.9,53.02,53.02,0,0,1,6.009-1.453c1.827-.318,3.592.317,4.467.317a20.616,20.616,0,0,0,2.219-.187Z" transform="translate(-263.557 -182.552)"/>
              <path id="Path_1693" data-name="Path 1693" class="cls-17" d="M370.739,234.277s2.752,1.94,4.069,7.8,4.653,35.667,5.283,40.843.426,13.194-10.986,13.194H332.751V290.8a1.687,1.687,0,0,1,1.822-1.878c.925,0,28.693-3.014,30.014-3.382a2.482,2.482,0,0,0,2-2.7c.057-1.584-4.489-19.918-5.443-26.785s3.064-21.979,9.591-21.781Z" transform="translate(-271.23 -153.411)"/>
              <path id="Path_1694" data-name="Path 1694" class="cls-19" d="M380.289,311.742c.109,4.9-1.527,10.646-11.184,10.646H332.751v-4.177c.892,1.113,2.679,2.383,6.18,2.383h28.64c4.381,0,12.559-3.171,12.718-8.852Z" transform="translate(-271.23 -179.683)"/>
              <path id="Path_1695" data-name="Path 1695" class="cls-16" d="M375.65,256.058c.646,4.642,2.928,14.526,4.324,20.933a54.978,54.978,0,0,1,1.119,5.851,2.446,2.446,0,0,1-1.7,2.6c2.752-.454,3.684-1.742,4.154-3.485.409-1.481.046-7.711-1.112-19.232q-.307-3.029-.683-6.548c-.929-8.688,1.09-14.476,3.094-17.921a18.654,18.654,0,0,1,1.747-2.525,6.849,6.849,0,0,0-1.355-1.453c-6.527-.2-10.539,14.914-9.591,21.781Z" transform="translate(-285.732 -153.411)"/>
              <path id="Path_1696" data-name="Path 1696" class="cls-26" d="M348.624,199.11s1.242-1.295,1.64-1.64.477.051.432.568.085,1.509-.194,1.741-1.651,0-1.94-.119.062-.55.062-.55Z" transform="translate(-276.554 -140.886)"/>
            </g>
          </g>
          <path id="Path_1697" data-name="Path 1697" class="cls-27" d="M208.4,244.027a.412.412,0,1,1,.823,0v1.856a.412.412,0,1,1-.823,0Zm-2.814,1.509a.418.418,0,0,1,0-.585.409.409,0,0,1,.584,0l1.31,1.312a.407.407,0,0,1,0,.584.417.417,0,0,1-.584,0Zm-.925,3.053a.414.414,0,0,1,0-.829h1.855a.414.414,0,1,1,0,.829Zm1.509,2.81a.411.411,0,1,1-.584-.58l1.31-1.317a.418.418,0,0,1,.584,0,.408.408,0,0,1,0,.585Zm3.053.924a.412.412,0,1,1-.823,0v-1.855a.412.412,0,1,1,.823,0Zm2.815-1.5a.412.412,0,1,1-.585.58l-1.311-1.312a.411.411,0,1,1,.579-.585Zm.919-3.059a.414.414,0,1,1,0,.829H211.1a.414.414,0,0,1,0-.829Zm-1.5-2.809a.409.409,0,0,1,.585,0,.419.419,0,0,1,0,.585l-1.316,1.311a.411.411,0,0,1-.579-.584Z" transform="translate(-50.287 -63.89)"/>
          <g id="Group_227" data-name="Group 227" transform="translate(76.686 251.634)">
            <path id="Path_1698" data-name="Path 1698" class="cls-28" d="M88.1,352.428h2.332a.781.781,0,0,1,.778.776v2.339a.782.782,0,0,1-.778.776H88.1a.779.779,0,0,1-.777-.776V353.2a.778.778,0,0,1,.777-.776Z" transform="translate(-87.318 -352.428)"/>
            <path id="Path_1699" data-name="Path 1699" class="cls-28" d="M100.16,352.428H102.5a.781.781,0,0,1,.777.776v2.339a.782.782,0,0,1-.777.776H100.16a.782.782,0,0,1-.777-.776V353.2a.781.781,0,0,1,.777-.776Z" transform="translate(-91.41 -352.428)"/>
            <path id="Path_1700" data-name="Path 1700" class="cls-28" d="M112.225,352.428h2.337a.781.781,0,0,1,.778.776v2.339a.782.782,0,0,1-.778.776h-2.337a.783.783,0,0,1-.778-.776V353.2a.782.782,0,0,1,.778-.776Z" transform="translate(-95.501 -352.428)"/>
            <path id="Path_1701" data-name="Path 1701" class="cls-28" d="M124.3,352.428h2.333a.778.778,0,0,1,.777.776v2.339a.779.779,0,0,1-.777.776H124.3a.779.779,0,0,1-.777-.776V353.2a.778.778,0,0,1,.777-.776Z" transform="translate(-99.596 -352.428)"/>
          </g>
          <path id="Path_1702" data-name="Path 1702" class="cls-27" d="M163.451,78.961a.411.411,0,0,1,.823,0v1.856a.411.411,0,1,1-.823,0Zm-2.815,1.51a.413.413,0,1,1,.584-.584l1.311,1.31a.411.411,0,0,1-.579.585Zm-.919,3.053a.413.413,0,0,1-.414-.414.408.408,0,0,1,.414-.408h1.856a.406.406,0,0,1,.408.408.412.412,0,0,1-.408.414Zm1.5,2.815a.413.413,0,0,1-.584-.584l1.316-1.316a.412.412,0,0,1,.579,0,.407.407,0,0,1,0,.584Zm3.053.92a.411.411,0,1,1-.823,0V85.4a.411.411,0,0,1,.823,0Zm2.815-1.5a.413.413,0,0,1-.585.584l-1.31-1.316a.407.407,0,0,1,0-.584.419.419,0,0,1,.585,0Zm.925-3.053a.406.406,0,0,1,.408.408.412.412,0,0,1-.408.414h-1.856a.413.413,0,0,1-.414-.414.408.408,0,0,1,.414-.408Zm-1.51-2.815a.413.413,0,1,1,.585.584l-1.31,1.311a.418.418,0,0,1-.585,0,.408.408,0,0,1,0-.585Z" transform="translate(-35.045 -7.912)"/>
          <g id="Group_228" data-name="Group 228" transform="translate(146.855 150.814)">
            <path id="Path_1703" data-name="Path 1703" class="cls-29" d="M194.274,199.87h2.337a.782.782,0,0,1,.778.778v2.337a.783.783,0,0,1-.778.779h-2.337a.783.783,0,0,1-.778-.779v-2.337a.783.783,0,0,1,.778-.778Z" transform="translate(-193.496 -199.87)"/>
            <path id="Path_1704" data-name="Path 1704" class="cls-29" d="M206.347,199.87h2.332a.779.779,0,0,1,.778.778v2.337a.779.779,0,0,1-.778.779h-2.332a.779.779,0,0,1-.777-.779v-2.337a.778.778,0,0,1,.777-.778Z" transform="translate(-197.591 -199.87)"/>
            <path id="Path_1705" data-name="Path 1705" class="cls-29" d="M218.412,199.87h2.338a.782.782,0,0,1,.777.778v2.337a.783.783,0,0,1-.777.779h-2.338a.783.783,0,0,1-.778-.779v-2.337a.783.783,0,0,1,.778-.778Z" transform="translate(-201.682 -199.87)"/>
            <path id="Path_1706" data-name="Path 1706" class="cls-29" d="M230.485,199.87h2.333a.781.781,0,0,1,.777.778v2.337a.782.782,0,0,1-.777.779h-2.333a.779.779,0,0,1-.778-.779v-2.337a.779.779,0,0,1,.778-.778Z" transform="translate(-205.777 -199.87)"/>
          </g>
          <g id="Group_229" data-name="Group 229" transform="translate(323.178 57.543)">
            <path id="Path_1707" data-name="Path 1707" class="cls-30" d="M512.642,119.619v51.034h-8.076a10.529,10.529,0,0,0-10.5,10.5h0a10.533,10.533,0,0,0,10.5,10.5h8.076V296.266H466.41V61.293A40.393,40.393,0,0,1,489.2,97.55h0a22.134,22.134,0,0,0,22.071,22.069Z" transform="translate(-462.374 -59.602)"/>
            <path id="Path_1708" data-name="Path 1708" class="cls-15" d="M468.373,62.684V295.4H460.3V58.734a40.134,40.134,0,0,1,8.07,3.95Z" transform="translate(-460.303 -58.734)"/>
            <path id="Path_1709" data-name="Path 1709" class="cls-15" d="M483.458,74.33V298.083h-8.075V66.651a40.979,40.979,0,0,1,8.075,7.679Z" transform="translate(-465.417 -61.419)"/>
            <path id="Path_1710" data-name="Path 1710" class="cls-15" d="M498.545,111.734V303.346h-8.074V82.168a39.975,39.975,0,0,1,6.893,22.461h0a21.857,21.857,0,0,0,1.181,7.1Z" transform="translate(-470.534 -66.681)"/>
            <path id="Path_1711" data-name="Path 1711" class="cls-15" d="M513.631,141.062V195.9a10.526,10.526,0,0,0-6.287,9.608h0a10.526,10.526,0,0,0,6.287,9.607V320.621h-8.074V133.106a22.33,22.33,0,0,0,8.074,7.956Z" transform="translate(-475.65 -83.956)"/>
            <path id="Path_1712" data-name="Path 1712" class="cls-15" d="M528.719,148.532v51.056h-5.761a10.36,10.36,0,0,0-2.314.261V146.613a21.96,21.96,0,0,0,8.075,1.919Zm0,72.053V325.2h-8.075V220.324a10.361,10.361,0,0,0,2.314.261Z" transform="translate(-480.767 -88.537)"/>
          </g>
          <g id="Group_230" data-name="Group 230" transform="translate(262.139 275.525)">
            <path id="Path_1713" data-name="Path 1713" class="cls-29" d="M368.719,388.578h2.338a.778.778,0,0,1,.777.777v2.332a.78.78,0,0,1-.777.779h-2.338a.78.78,0,0,1-.778-.779v-2.332a.779.779,0,0,1,.778-.777Z" transform="translate(-367.941 -388.578)"/>
            <path id="Path_1714" data-name="Path 1714" class="cls-29" d="M380.793,388.578h2.333a.775.775,0,0,1,.776.777v2.332a.776.776,0,0,1-.776.779h-2.333a.776.776,0,0,1-.777-.779v-2.332a.775.775,0,0,1,.777-.777Z" transform="translate(-372.036 -388.578)"/>
            <path id="Path_1715" data-name="Path 1715" class="cls-29" d="M392.857,388.578H395.2a.779.779,0,0,1,.777.777v2.332a.78.78,0,0,1-.777.779h-2.339a.78.78,0,0,1-.779-.779v-2.332a.779.779,0,0,1,.779-.777Z" transform="translate(-376.127 -388.578)"/>
            <path id="Path_1716" data-name="Path 1716" class="cls-29" d="M404.929,388.578h2.333a.775.775,0,0,1,.777.777v2.332a.776.776,0,0,1-.777.779h-2.333a.777.777,0,0,1-.777-.779v-2.332a.776.776,0,0,1,.777-.777Z" transform="translate(-380.221 -388.578)"/>
          </g>
          <g id="Group_231" data-name="Group 231" transform="translate(275.52 63.775)">
            <path id="Path_1717" data-name="Path 1717" class="cls-29" d="M388.966,68.164H391.3a.778.778,0,0,1,.777.777v2.332a.779.779,0,0,1-.777.778h-2.339a.779.779,0,0,1-.777-.778V68.941a.778.778,0,0,1,.777-.777Z" transform="translate(-388.189 -68.164)"/>
            <path id="Path_1718" data-name="Path 1718" class="cls-29" d="M401.04,68.164h2.332a.777.777,0,0,1,.778.777v2.332a.778.778,0,0,1-.778.778H401.04a.775.775,0,0,1-.776-.778V68.941a.774.774,0,0,1,.776-.777Z" transform="translate(-392.284 -68.164)"/>
            <path id="Path_1719" data-name="Path 1719" class="cls-29" d="M413.107,68.164h2.331a.78.78,0,0,1,.784.777v2.332a.781.781,0,0,1-.784.778h-2.331a.779.779,0,0,1-.779-.778V68.941a.778.778,0,0,1,.779-.777Z" transform="translate(-396.375 -68.164)"/>
            <path id="Path_1720" data-name="Path 1720" class="cls-29" d="M425.17,68.164h2.339a.778.778,0,0,1,.777.777v2.332a.779.779,0,0,1-.777.778H425.17a.779.779,0,0,1-.776-.778V68.941a.778.778,0,0,1,.776-.777Z" transform="translate(-400.467 -68.164)"/>
          </g>
          <g id="Group_232" data-name="Group 232" transform="translate(387.492 207.66)">
            <path id="Path_1721" data-name="Path 1721" class="cls-29" d="M558.4,285.887h2.332a.778.778,0,0,1,.777.777V289a.783.783,0,0,1-.777.778H558.4a.779.779,0,0,1-.777-.778v-2.332a.774.774,0,0,1,.777-.777Z" transform="translate(-557.621 -285.887)"/>
            <path id="Path_1722" data-name="Path 1722" class="cls-29" d="M570.462,285.887H572.8a.779.779,0,0,1,.778.777V289a.784.784,0,0,1-.778.778h-2.338a.783.783,0,0,1-.777-.778v-2.332a.778.778,0,0,1,.777-.777Z" transform="translate(-561.712 -285.887)"/>
            <path id="Path_1723" data-name="Path 1723" class="cls-29" d="M582.528,285.887h2.338a.779.779,0,0,1,.777.777V289a.784.784,0,0,1-.777.778h-2.338a.783.783,0,0,1-.778-.778v-2.332a.778.778,0,0,1,.778-.777Z" transform="translate(-565.804 -285.887)"/>
            <path id="Path_1724" data-name="Path 1724" class="cls-29" d="M594.6,285.887h2.332a.775.775,0,0,1,.777.777V289a.78.78,0,0,1-.777.778H594.6a.784.784,0,0,1-.778-.778v-2.332a.779.779,0,0,1,.778-.777Z" transform="translate(-569.898 -285.887)"/>
          </g>
          <g id="Group_233" data-name="Group 233" transform="translate(83.105 194.39)">
            <path id="Path_1725" data-name="Path 1725" class="cls-14" d="M147.247,359.574a77.5,77.5,0,0,1,1.815-16.276c.011-.044.023-.1.034-.141.063-.25.255-.727.755-.59a43.516,43.516,0,0,1,11.276,8.478c5.124,5.215,5.039-2.628.59-5.715s-8.989-4.386-10.351-5.567a2.873,2.873,0,0,1-1.123-2.53h0c1.061-5.976,1.855-12.1,2.411-18.131l.006-.007s.255-1.315,1.5.227,6.1,6.919,9.875,7.27.318-5.624-5.011-8.558-5.981-3.557-5.93-4.272v-.007c.34-4.75.539-9.4.613-13.824h0s.215-.795.919-.221,6,6.64,8.83,6,.079-5.812-4.426-7.62-5.289-2.355-5.295-3.025h0c-.045-13.1-1.2-23.658-2.945-28.147-1.811-4.676,9.692,5.9,20.327,23.165.913,1.572.851,2.474.262,4.381-.636,2.043-1.334,6.65.334,5.578s1.9-5.119,2.031-5.192a.15.15,0,0,1,.2.034c1.742,3.088,3.416,6.339,4.971,9.715,1.6,3.791-.539,6.379-3.518,10.078-3.087,3.836-2.53,7.911.749,6.2s4.806-9.681,5.079-9.9c.25-.194.432.1.46.154a92.912,92.912,0,0,1,4.948,17.353c.221,2.951-2.185,5.4-4.71,9.386-2.542,4.023-.59,6.447,1.419,5.9s3.359-5.453,3.8-5.771c.4-.3.528-.046.545,0a55.848,55.848,0,0,1-1.862,17.12,113.807,113.807,0,0,1-4.261,12.741H155.526Z" transform="translate(-114.061 -265.807)"/>
            <path id="Path_1726" data-name="Path 1726" class="cls-19" d="M184.214,376.076a456.667,456.667,0,0,0-15.186-85.288,1.029,1.029,0,1,0-1.975.578,454.275,454.275,0,0,1,15.123,84.709Z" transform="translate(-120.763 -274.028)"/>
            <path id="Path_1727" data-name="Path 1727" class="cls-31" d="M211.558,323.759c19.749-11.7,25.2,12.644,21.2,23.671-2.968,8.16-13.489,26.041-20.9,39.026H184.309c3.575-27.286,12.716-54.088,27.249-62.7Z" transform="translate(-126.63 -284.408)"/>
            <path id="Path_1728" data-name="Path 1728" class="cls-32" d="M202.461,389.988a322.572,322.572,0,0,1,25.52-58.429,1.123,1.123,0,0,1,1.271-.437.673.673,0,0,1,.449.994,321.377,321.377,0,0,0-25.338,57.872Z" transform="translate(-132.786 -287.94)"/>
            <path id="Path_1729" data-name="Path 1729" class="cls-33" d="M97.337,297.886c6.089-23.017,27.551-10.413,36.767,9.261,5.2,11.106,14.215,40.406,24.356,67.39H132.708l-7.655-4.3c-17.814-33.311-30.151-63.161-27.716-72.355Z" transform="translate(-97.03 -272.489)"/>
            <path id="Path_1730" data-name="Path 1730" class="cls-21" d="M145.173,373.567a425.145,425.145,0,0,1-29.839-73.376.958.958,0,0,1,1.839-.534c.057.2,11.276,39.8,32.676,78.579Z" transform="translate(-103.225 -277.053)"/>
          </g>
          <g id="Group_234" data-name="Group 234" transform="translate(358.327 174.838)">
            <rect id="Rectangle_209" data-name="Rectangle 209" class="cls-9" width="24.492" height="7.422" transform="translate(64.956 48.836)"/>
            <rect id="Rectangle_210" data-name="Rectangle 210" class="cls-9" width="24.5" height="7.422" transform="translate(54.24 57.746)"/>
            <path id="Path_1731" data-name="Path 1731" class="cls-34" d="M634.4,323.6h15.5a52.156,52.156,0,0,1,.8,7.422H634.4Z" transform="translate(-554.493 -265.856)"/>
            <rect id="Rectangle_211" data-name="Rectangle 211" class="cls-9" width="24.492" height="7.424" transform="translate(64.956 66.648)"/>
            <path id="Path_1732" data-name="Path 1732" class="cls-34" d="M650.609,337.072h5.613c.006.137.006.274.006.409h0a51.944,51.944,0,0,1-.473,7.016h-5.146Z" transform="translate(-559.992 -270.424)"/>
            <path id="Path_1733" data-name="Path 1733" class="cls-34" d="M634.4,350.555H650.03a52.112,52.112,0,0,1-1.793,7.423H634.4Z" transform="translate(-554.493 -274.997)"/>
            <path id="Path_1734" data-name="Path 1734" class="cls-5" d="M570.115,362.262a.414.414,0,1,1,.829,0v1.854a.414.414,0,0,1-.829,0Zm-2.81,1.5a.41.41,0,0,1,0-.585.419.419,0,0,1,.585,0L569.2,364.5a.413.413,0,0,1-.584.585Zm-.924,3.059a.414.414,0,1,1,0-.829h1.854a.414.414,0,1,1,0,.829Zm1.509,2.809a.414.414,0,0,1-.585-.585l1.312-1.311a.413.413,0,0,1,.584.585Zm3.054.925a.414.414,0,0,1-.829,0V368.7a.414.414,0,0,1,.829,0Zm2.809-1.51a.409.409,0,0,1,0,.585.4.4,0,0,1-.58,0l-1.315-1.311a.413.413,0,0,1,.584-.585Zm.925-3.052a.414.414,0,0,1,0,.829h-1.857a.414.414,0,0,1,0-.829Zm-1.5-2.815a.412.412,0,0,1,.58.585l-1.311,1.316a.413.413,0,0,1-.584-.585Z" transform="translate(-531.286 -278.827)"/>
            <path id="Path_1735" data-name="Path 1735" class="cls-14" d="M638.343,289.5c5.7,18.494,7.825,28.545,10.884,36.859a51.855,51.855,0,0,0,2.339-15.436h0V284.392c0-48.242-20.249-17.677-13.223,5.112Z" transform="translate(-555.329 -243.87)"/>
            <path id="Path_1736" data-name="Path 1736" class="cls-14" d="M525.9,396.476a71.43,71.43,0,0,1-11.684-23.33c-4.717-16.661,14.641,1.8,29.912,23.33Z" transform="translate(-513.489 -280.472)"/>
            <path id="Path_1737" data-name="Path 1737" class="cls-14" d="M563.832,378.086c-4.767-8.06-9.5-18.665-10.243-29.828-1.565-23.488-2.015-30.871-6.491-34.673-3.836-3.263,42.436-2.565,61.838,48.935a52.7,52.7,0,0,1-21.8,15.567Z" transform="translate(-524.811 -262.082)"/>
            <path id="Path_1738" data-name="Path 1738" class="cls-21" d="M555.8,312.778c17.518,15.935,31.3,39.5,41.4,61.487-.482.284-.971.562-1.459.827a247.263,247.263,0,0,0-22.184-39.33,130.422,130.422,0,0,0-20.576-23.257c.835.04,1.783.13,2.821.272Z" transform="translate(-526.883 -262.093)"/>
            <path id="Path_1739" data-name="Path 1739" class="cls-35" d="M611.584,261.1c3.866,9.516,9.562,30.859,16.3,53.832a52.544,52.544,0,0,1-19.05,29.7c-16.32-23.3-30.531-49.774-35.843-70.766-10.685-42.243,22.558-52.311,38.594-12.763Z" transform="translate(-532.964 -236.222)"/>
            <path id="Path_1740" data-name="Path 1740" class="cls-21" d="M625.486,341.334c-22.6-39.514-33.123-85.876-33.169-86.075a.844.844,0,0,1,1.646-.381c.047.2,10.426,45.9,32.614,85-.358.488-.722.977-1.09,1.452Z" transform="translate(-540.215 -242.328)"/>
            <path id="Path_1741" data-name="Path 1741" class="cls-31" d="M586.493,394.562a55.984,55.984,0,0,0-4.121-12.157c-7.531-15.809-26.358-21.96-31.715-19.555-4.377,1.97-13.189,14.16-6.611,32.149h41.335c.374-.142.743-.284,1.112-.437Z" transform="translate(-523.052 -278.996)"/>
            <path id="Path_1742" data-name="Path 1742" class="cls-21" d="M578.577,396.083c.959-2.583,2.94-8.257,3.2-11.685a.473.473,0,0,0-.441-.516.48.48,0,0,0-.516.443c-.237,3.195-2.055,8.472-3.031,11.134A107.1,107.1,0,0,0,569.639,382a43.87,43.87,0,0,0,1.521-11.56.482.482,0,1,0-.964.035,41.831,41.831,0,0,1-1.288,10.509A108.335,108.335,0,0,0,555.5,365.8a.961.961,0,0,0-1.316,1.4c2.576,2.417,4.937,4.875,7.11,7.349a29.215,29.215,0,0,0-7.887-.436.486.486,0,0,0-.432.527.479.479,0,0,0,.527.426,29.634,29.634,0,0,1,8.82.67,104.66,104.66,0,0,1,8.676,11.7,77.5,77.5,0,0,0-20.078.618.482.482,0,1,0,.177.948,76.593,76.593,0,0,1,20.553-.528c1.611,2.583,3.041,5.131,4.306,7.605Z" transform="translate(-526.049 -280.079)"/>
          </g>
          <g id="Group_236" data-name="Group 236" transform="translate(376.162 84.629)">
            <g id="Group_235" data-name="Group 235" transform="translate(0 4.806)">
              <path id="Path_1743" data-name="Path 1743" class="cls-7" d="M541.362,106.993h2.655a.887.887,0,0,1,.886.886v2.65a.887.887,0,0,1-.886.886h-2.655a.885.885,0,0,1-.885-.886v-2.65a.885.885,0,0,1,.885-.886Z" transform="translate(-540.477 -106.993)"/>
              <path id="Path_1744" data-name="Path 1744" class="cls-7" d="M555.083,106.993h2.65a.887.887,0,0,1,.886.886v2.65a.887.887,0,0,1-.886.886h-2.65a.886.886,0,0,1-.886-.886v-2.65a.886.886,0,0,1,.886-.886Z" transform="translate(-545.13 -106.993)"/>
              <path id="Path_1745" data-name="Path 1745" class="cls-7" d="M568.8,106.993h2.656a.885.885,0,0,1,.884.886v2.65a.885.885,0,0,1-.884.886H568.8a.884.884,0,0,1-.879-.886v-2.65a.884.884,0,0,1,.879-.886Z" transform="translate(-549.784 -106.993)"/>
              <path id="Path_1746" data-name="Path 1746" class="cls-7" d="M582.519,106.993h2.656a.884.884,0,0,1,.879.886v2.65a.884.884,0,0,1-.879.886h-2.656a.886.886,0,0,1-.886-.886v-2.65a.886.886,0,0,1,.886-.886Z" transform="translate(-554.435 -106.993)"/>
            </g>
            <path id="Path_1747" data-name="Path 1747" class="cls-27" d="M642.07,100.191a.471.471,0,0,1,.943,0V102.3a.471.471,0,0,1-.943,0Zm-3.195,1.714a.472.472,0,0,1,0-.663.461.461,0,0,1,.664,0l1.492,1.492a.469.469,0,0,1-.664.664Zm-1.051,3.468a.468.468,0,1,1,0-.936h2.112a.468.468,0,0,1,0,.936Zm1.714,3.2a.469.469,0,1,1-.664-.664l1.492-1.493a.469.469,0,0,1,.664.664Zm3.474,1.05a.471.471,0,0,1-.943,0v-2.112a.471.471,0,0,1,.943,0Zm3.195-1.714a.469.469,0,1,1-.664.664l-1.494-1.492a.469.469,0,1,1,.664-.664Zm1.049-3.473a.468.468,0,1,1,0,.936h-2.111a.468.468,0,0,1,0-.936Zm-1.713-3.195a.461.461,0,0,1,.664,0,.474.474,0,0,1,0,.663l-1.494,1.493a.469.469,0,0,1-.664-.664Z" transform="translate(-573.331 -99.72)"/>
          </g>
          <path id="Path_1748" data-name="Path 1748" class="cls-27" d="M90.1,226.334a.468.468,0,1,1,.936,0v2.111a.468.468,0,0,1-.936,0Zm-3.195,1.714a.462.462,0,0,1,0-.664.472.472,0,0,1,.664,0l1.488,1.493a.468.468,0,1,1-.659.663Zm-1.05,3.474a.471.471,0,0,1,0-.942h2.111a.471.471,0,0,1,0,.942Zm1.714,3.195a.471.471,0,0,1-.664,0,.462.462,0,0,1,0-.664L88.4,232.56a.468.468,0,1,1,.659.664Zm3.468,1.049a.468.468,0,1,1-.936,0v-2.111a.468.468,0,1,1,.936,0Zm3.2-1.714a.469.469,0,0,1-.663.664l-1.493-1.492a.47.47,0,0,1,.664-.664Zm1.05-3.473a.471.471,0,0,1,0,.942H93.178a.471.471,0,1,1,0-.942Zm-1.714-3.2a.469.469,0,0,1,.663.664l-1.492,1.492a.469.469,0,1,1-.664-.663Z" transform="translate(-9.977 -57.871)"/>
          <g id="Group_237" data-name="Group 237" transform="translate(55.968 291.323)">
            <path id="Path_1749" data-name="Path 1749" class="cls-19" d="M61.262,412.484H472.34a5.31,5.31,0,0,1,5.3,5.294h0a5.316,5.316,0,0,1-5.3,5.3H454.473a2.948,2.948,0,0,0-2.942,2.941h0a2.952,2.952,0,0,0,2.942,2.942h6.535a3.689,3.689,0,0,1,3.68,3.679h0a3.687,3.687,0,0,1-3.68,3.674H73.185a3.686,3.686,0,0,1-3.681-3.674h0a3.688,3.688,0,0,1,3.681-3.679h5.144a2.952,2.952,0,0,0,2.942-2.942h0a2.948,2.948,0,0,0-2.942-2.941H61.262a5.311,5.311,0,0,1-5.294-5.3h0a5.31,5.31,0,0,1,5.294-5.294Zm2.758,23.831h0a3.541,3.541,0,0,1-3.53-3.532v-.291a3.541,3.541,0,0,1,3.53-3.531h0a3.537,3.537,0,0,1,3.532,3.531v.291a3.537,3.537,0,0,1-3.532,3.532Z" transform="translate(-55.968 -412.484)"/>
          </g>
        </g>
      </g>
    </g>
  </g>
</svg>
