<svg xmlns="http://www.w3.org/2000/svg" xmlns:xlink="http://www.w3.org/1999/xlink" width="898.303" height="1290.933" viewBox="0 0 898.303 1290.933">
  <defs>
    <linearGradient id="linear-gradient" x1="0.5" x2="0.5" y2="1" gradientUnits="objectBoundingBox">
      <stop offset="0" stop-color="#72e3dc"/>
      <stop offset="1" stop-color="#71b0e4"/>
    </linearGradient>
    <linearGradient id="linear-gradient-2" x1="0.5" x2="0.511" y2="1.537" gradientUnits="objectBoundingBox">
      <stop offset="0" stop-color="#c9f8f8"/>
      <stop offset="1" stop-color="#00dcff"/>
    </linearGradient>
  </defs>
  <g id="Group_239" data-name="Group 239" transform="translate(166 88)">
    <path id="Path_1619" data-name="Path 1619" d="M0,61.71s761.913-58.905,768.095,0-127.473,252.466-127.473,554,133.692,478.24,96.564,531.535-737.186,0-737.186,0Z" transform="translate(-36 -61.071)" fill="url(#linear-gradient)"/>
    <path id="Path_521" data-name="Path 521" d="M147.622,0C224.767,0,287.3,72.8,287.3,162.605S224.767,325.211,147.622,325.211-18.35,320.539-18.35,230.735,70.477,0,147.622,0Z" transform="translate(-36.777 1184.762) rotate(-98)" fill="#0b9ff2" opacity="0.69"/>
    <circle id="Ellipse_26" data-name="Ellipse 26" cx="106" cy="106" r="106" transform="translate(0 -88)" fill="#0b9ff2"/>
    <ellipse id="Ellipse_27" data-name="Ellipse 27" cx="139" cy="138" rx="139" ry="138" transform="translate(-166 -54)" opacity="0.71" fill="url(#linear-gradient-2)"/>
    <text id="Welcome" transform="translate(189 601)" fill="#fff" font-size="61" font-family="Roboto-Bold, Roboto" font-weight="700"><tspan x="0" y="0">Welcome</tspan></text>
    <text id="You_are_just_seconds_away_from_exploring_all_the_features_we_have_for_you_" data-name="You are just seconds away 
from exploring all the features
we have for you !" transform="translate(316 656)" fill="#fff" font-size="26" font-family="Roboto-Medium, Roboto" font-weight="500"><tspan x="-157.638" y="0">You are just seconds away </tspan><tspan x="-175.265" y="37">from exploring all the features</tspan><tspan x="-98.167" y="74">we have for you !</tspan></text>
    <g id="Group_238" data-name="Group 238" transform="translate(98.032 257.778)">
      <path id="Path_1656" data-name="Path 1656" d="M624.257,174.193a.363.363,0,0,1,.725,0v1.627a.363.363,0,0,1-.725,0Zm-2.462,1.32a.362.362,0,1,1,.511-.512l1.149,1.15a.361.361,0,1,1-.511.511Zm-.81,2.676a.361.361,0,1,1,0-.721h1.626a.361.361,0,0,1,0,.721Zm1.321,2.462a.36.36,0,0,1-.511-.507l1.15-1.15a.356.356,0,0,1,.511,0,.363.363,0,0,1,0,.512Zm2.676.809a.363.363,0,1,1-.725,0v-1.622a.363.363,0,0,1,.725,0Zm2.462-1.316a.36.36,0,1,1-.511.507l-1.15-1.145a.363.363,0,0,1,0-.512.356.356,0,0,1,.511,0Zm.809-2.676a.361.361,0,1,1,0,.721h-1.627a.361.361,0,0,1,0-.721ZM626.933,175a.362.362,0,1,1,.511.512l-1.15,1.15a.362.362,0,0,1-.511-.511Z" transform="translate(-277.106 -58.209)" fill="#8b77e6"/>
      <path id="Path_1657" data-name="Path 1657" d="M130.1,55.222a40.424,40.424,0,0,0-40.3,40.309h0a40.423,40.423,0,0,0,40.3,40.305h0a8.114,8.114,0,0,1,8.09,8.089h0a8.111,8.111,0,0,1-8.09,8.089h-21.09a19.723,19.723,0,0,0-19.665,19.666h0a19.721,19.721,0,0,0,19.665,19.66,17.057,17.057,0,0,1,17.006,17.007h0a31.12,31.12,0,0,0,31.026,31.03H339.19a40.428,40.428,0,0,0,40.306-40.31h0a40.426,40.426,0,0,0-40.306-40.3H310.765a8.116,8.116,0,0,1-8.089-8.089h0a8.114,8.114,0,0,1,8.089-8.09h7.221a19.721,19.721,0,0,0,19.664-19.665h0a19.719,19.719,0,0,0-19.629-19.66h-2.085a17.056,17.056,0,0,1-17.007-17.006h0a31.12,31.12,0,0,0-31.03-31.03Z" transform="translate(-16.379)" fill="#e4ebf7" fill-rule="evenodd"/>
      <path id="Path_1658" data-name="Path 1658" d="M609.7,190.23a19.481,19.481,0,1,0-19.481-19.481A19.481,19.481,0,0,0,609.7,190.23Z" transform="translate(-262.185 -47.135)" fill="#a9d8fb" fill-rule="evenodd"/>
      <g id="Group_223" data-name="Group 223" transform="translate(93.198 77.192)">
        <rect id="Rectangle_194" data-name="Rectangle 194" width="18.873" height="5.719" transform="translate(28.031)" fill="#278bd5"/>
        <rect id="Rectangle_195" data-name="Rectangle 195" width="18.878" height="5.72" transform="translate(0 6.865)" fill="#278bd5"/>
        <rect id="Rectangle_196" data-name="Rectangle 196" width="18.873" height="5.72" transform="translate(19.775 6.865)" fill="#278bd5"/>
        <rect id="Rectangle_197" data-name="Rectangle 197" width="18.873" height="5.72" transform="translate(8.256 13.726)" fill="#278bd5"/>
        <rect id="Rectangle_198" data-name="Rectangle 198" width="18.878" height="5.72" transform="translate(0 20.592)" fill="#278bd5"/>
        <rect id="Rectangle_199" data-name="Rectangle 199" width="18.873" height="5.72" transform="translate(19.775 20.592)" fill="#278bd5"/>
      </g>
      <rect id="Rectangle_200" data-name="Rectangle 200" width="18.878" height="5.716" transform="translate(133.468 202.72)" fill="#bbbbf6"/>
      <rect id="Rectangle_201" data-name="Rectangle 201" width="18.877" height="5.716" transform="translate(153.243 202.72)" fill="#bbbbf6"/>
      <rect id="Rectangle_202" data-name="Rectangle 202" width="18.873" height="5.719" transform="translate(125.217 209.582)" fill="#bbbbf6"/>
      <rect id="Rectangle_203" data-name="Rectangle 203" width="18.873" height="5.719" transform="translate(144.991 209.582)" fill="#278bd5"/>
      <rect id="Rectangle_204" data-name="Rectangle 204" width="18.877" height="5.72" transform="translate(153.243 216.447)" fill="#278bd5"/>
      <rect id="Rectangle_205" data-name="Rectangle 205" width="18.873" height="5.72" transform="translate(125.217 223.308)" fill="#bbbbf6"/>
      <rect id="Rectangle_206" data-name="Rectangle 206" width="18.873" height="5.72" transform="translate(144.991 223.308)" fill="#278bd5"/>
      <g id="Group_226" data-name="Group 226" transform="translate(149.512 71.695)">
        <path id="Path_1659" data-name="Path 1659" d="M262.08,89.321h83.085a3.864,3.864,0,0,1,3.852,3.852v118.51h2.956a2.6,2.6,0,0,1,2.585,2.59v10.582a2.593,2.593,0,0,1-2.585,2.585h-96.7a2.593,2.593,0,0,1-2.584-2.585V214.273a2.6,2.6,0,0,1,2.584-2.59h2.956V93.173a3.867,3.867,0,0,1,3.853-3.852Z" transform="translate(-246.052 -88.429)" fill="#8dcfff" fill-rule="evenodd"/>
        <path id="Path_1660" data-name="Path 1660" d="M263.262,87.569h83.086a3.86,3.86,0,0,1,3.852,3.848V211.764a3.86,3.86,0,0,1-3.852,3.848H263.262a3.861,3.861,0,0,1-3.852-3.848V91.417a3.861,3.861,0,0,1,3.852-3.848Z" transform="translate(-249.352 -87.569)" fill="#f4f5f9" fill-rule="evenodd"/>
        <rect id="Rectangle_207" data-name="Rectangle 207" width="76.709" height="50.218" transform="translate(17.099 66.963)" fill="#0091ff"/>
        <g id="Group_224" data-name="Group 224" transform="translate(17.099 7.036)">
          <rect id="Rectangle_208" data-name="Rectangle 208" width="76.709" height="61.229" fill="#e4ebf7"/>
          <path id="Path_1661" data-name="Path 1661" d="M288.091,116.241v19.267H315.1V116.241Zm0,26.832v19.267H315.1V143.073Zm34.572,19.267h27.008V143.073H322.663Zm27.008-26.832V116.241H322.663v19.267Z" transform="translate(-280.526 -108.676)" fill="#0091ff" fill-rule="evenodd"/>
          <path id="Path_1662" data-name="Path 1662" d="M353.352,133.857l-4.745,4.745H336.048l16.058-16.058h1.246Zm-11.842-11.313h5.441L330.892,138.6h-1.487v-3.953Zm-19.669,39.68h-9.415l9.415-9.415Zm-14.571,0h-5.44l16.057-16.058h3.953v1.487Zm33.772-16.058L329.405,157.8V146.166Z" transform="translate(-287.268 -111.769)" fill="#c7e7ff" fill-rule="evenodd"/>
        </g>
        <path id="Path_1663" data-name="Path 1663" d="M251.114,327.852h96.7a2.591,2.591,0,0,1,2.583,2.584v10.583a2.6,2.6,0,0,1-2.583,2.589h-96.7a2.6,2.6,0,0,1-2.584-2.589V330.436a2.592,2.592,0,0,1,2.584-2.584Z" transform="translate(-244.013 -205.489)" fill="#c7e7ff" fill-rule="evenodd"/>
        <g id="Group_225" data-name="Group 225" transform="translate(0 12.397)">
          <path id="Path_1664" data-name="Path 1664" d="M328.584,225.829l-1,.1-.617-.022-.616-.026-.988-.183-5.65-5.781-12.987,5.72c.4,20.412-1.736,29.99-4.242,44.062h39.457c.052-6.062,2.5-15.039,3.009-19.91l2.222-22.561-12.5-6.725Z" transform="translate(-270.49 -164.919)" fill="#597bf5" fill-rule="evenodd"/>
          <path id="Path_1665" data-name="Path 1665" d="M358.427,270.267h7.123a23.312,23.312,0,0,1,4.01-2.852c.565-5.768,2.405-12.9,2.843-17.058l.062-.64q-.237-2.334-.526-5.046c-.716-6.695.84-11.155,2.384-13.81l.3-3.066-12.5-6.725-1.968,1.723-.678,3.227s6.756,5.213,7.575,8.064-2.038,22.473-4.072,30.942c-.5,2.074-2.23,3.805-4.556,5.24Z" transform="translate(-297.945 -165.484)" fill="#2f48d3" fill-rule="evenodd"/>
          <path id="Path_1666" data-name="Path 1666" d="M309.127,232.767a163.321,163.321,0,0,1-1.775,28.949h0s6.629-24.795,5.895-25.473c-.573-.529-1.29-1.123-4.12-3.476Z" transform="translate(-272.88 -171.223)" fill="#2f48d3" fill-rule="evenodd"/>
          <path id="Path_1667" data-name="Path 1667" d="M351.364,216.513a16.455,16.455,0,0,0-13.718-.542l.718,2.168,12.117.477Z" transform="translate(-287.747 -162.371)" fill="#b1aec1" fill-rule="evenodd"/>
          <path id="Path_1668" data-name="Path 1668" d="M345.12,226.394l-1,.1-1.233-.048-.988-.183-3.8-3.884-.594.158-1.33,1.614s2.615,6.773,2.773,7.005.454.358.909-.149,1.876-2.173,1.876-2.173.411-.4.578.079,2.247-.73,2.247-.73l.127.454s.323-.363.612.136,1.706,2.654,1.806,2.75.546.429.892-.214c.31-.591,4.036-8.13,4.683-9.445l-1.474-.8Z" transform="translate(-287.026 -165.484)" fill="#31275b" fill-rule="evenodd"/>
          <path id="Path_1669" data-name="Path 1669" d="M347.674,231.029l-1,.1-1.233-.048-.988-.183-.376-.384-.888,1.4s1.828.673,1.762,2.3l-3.568,40.69h1.968l3.568-40.611a2.76,2.76,0,0,1,1.937-2.152l-.774-1.465Z" transform="translate(-289.58 -170.119)" fill="#31275b" fill-rule="evenodd"/>
          <path id="Path_1670" data-name="Path 1670" d="M346.389,198.587h0a5.226,5.226,0,0,1,5,5.409l-.271,6.883a5.226,5.226,0,0,1-5.409,5h0a5.229,5.229,0,0,1-5-5.409l.271-6.883a5.225,5.225,0,0,1,5.409-5Z" transform="translate(-289.248 -154.447)" fill="#e76d60" fill-rule="evenodd"/>
          <path id="Path_1671" data-name="Path 1671" d="M347.617,230.291l.6-.074a.6.6,0,0,1,.122.345c.009.214,0,.848,0,.848-.223.07-1.4.263-1.356.1.009-.04.639-1.216.639-1.216Z" transform="translate(-292.326 -169.971)" fill="#31275b" fill-rule="evenodd"/>
          <path id="Path_1672" data-name="Path 1672" d="M352.216,230.433l-.59-.122a.608.608,0,0,0-.149.337c-.026.214-.066.844-.066.844.214.179,1.378.372,1.347.205-.009-.039-.542-1.264-.542-1.264Z" transform="translate(-294.502 -170.018)" fill="#31275b" fill-rule="evenodd"/>
          <path id="Path_1673" data-name="Path 1673" d="M358.325,218.222c.066.061.753,1.381,1.111,2.02a1.677,1.677,0,0,1,.039,1.373c-.288.852-3.914,7.775-3.914,7.775s-.254.368-.621-.013-3.109-5-3.109-5l5.76-5.615c.271-.318.673-.6.734-.537Z" transform="translate(-294.709 -164.081)" fill="#fff" fill-rule="evenodd"/>
          <path id="Path_1674" data-name="Path 1674" d="M336.216,217.163c-.048.021-.861,1.32-1.268,1.928a1.682,1.682,0,0,0-.144,1.369c.223.87,3.288,8.059,3.288,8.059s.224.38.621.031,3.494-4.74,3.494-4.74l-5.3-6.052c-.354-.45-.647-.616-.691-.594Z" transform="translate(-286.317 -163.564)" fill="#fff" fill-rule="evenodd"/>
          <path id="Path_1675" data-name="Path 1675" d="M328.564,185.839c-.079,0-.158,0-.236,0h0a3.181,3.181,0,1,0,2.532,1.015c-.057.94-.368,2.064-1.57,2.007l.3-1.806a1.091,1.091,0,0,0-1.018-1.22Z" transform="translate(-281.712 -148.193)" fill="#e76d60" fill-rule="evenodd"/>
          <path id="Path_1676" data-name="Path 1676" d="M372.3,192.287c.075.022.149.048.223.074h.005a3.175,3.175,0,1,1-2.716.249c-.214.919-.236,2.086.931,2.375l.232-1.82a1.091,1.091,0,0,1,1.325-.879Z" transform="translate(-302.767 -151.348)" fill="#e76d60" fill-rule="evenodd"/>
          <path id="Path_1677" data-name="Path 1677" d="M345.051,158.14h0a10.9,10.9,0,0,0-12.318,9.2l-1.421,9.786a10.9,10.9,0,0,0,9.2,12.319h0a10.9,10.9,0,0,0,12.318-9.2l1.421-9.783a10.909,10.909,0,0,0-9.2-12.323Z" transform="translate(-284.582 -134.544)" fill="#fcb187" fill-rule="evenodd"/>
          <path id="Path_1678" data-name="Path 1678" d="M341.076,193.934a10.783,10.783,0,0,0,1.518.332h0a10.9,10.9,0,0,0,12.318-9.2l1.421-9.783a10.754,10.754,0,0,0-.485-5.094c-4.346-1.294-8.05-2.335-8.05-2.335s-13.7-.013-12.24,3.774l.389.63a3.677,3.677,0,0,1,3.275-.568c2.1.512,9.061,2.322,11.361,3.175s2.912,2.567,2.567,4.889-.1,3.236.468,3.621c0,0-.883,10.557-12.542,10.557Z" transform="translate(-286.668 -139.369)" fill="#f49677" fill-rule="evenodd"/>
          <path id="Path_1679" data-name="Path 1679" d="M346.221,203.162a2.813,2.813,0,0,0,5.532,1.028h0a.49.49,0,0,0-.39-.568l-4.565-.849a.491.491,0,0,0-.569.389Z" transform="translate(-291.932 -156.499)" fill="#fff" fill-rule="evenodd"/>
          <path id="Path_1680" data-name="Path 1680" d="M347.5,207.594a2.819,2.819,0,0,0,3.161.791,1.745,1.745,0,0,0-1.39-1.316,1.78,1.78,0,0,0-1.771.525Z" transform="translate(-292.585 -158.587)" fill="#fff" fill-rule="evenodd"/>
          <path id="Path_1681" data-name="Path 1681" d="M352.275,203.714l-4.294-.8a.987.987,0,0,0,.275,1.146,12.411,12.411,0,0,0,3.752.49,1.684,1.684,0,0,0,.267-.84Z" transform="translate(-292.786 -156.574)" fill="#fff" fill-rule="evenodd"/>
          <path id="Path_1682" data-name="Path 1682" d="M362.767,201.355A1.431,1.431,0,1,0,363.943,203a1.435,1.435,0,0,0-1.176-1.644Z" transform="translate(-299.259 -155.798)" fill="#e76d60" fill-rule="evenodd"/>
          <path id="Path_1683" data-name="Path 1683" d="M338.937,197.431a1.431,1.431,0,1,0,1.176,1.644,1.436,1.436,0,0,0-1.176-1.644Z" transform="translate(-287.564 -153.872)" fill="#e76d60" fill-rule="evenodd"/>
          <path id="Path_1684" data-name="Path 1684" d="M341.7,190.39a1.013,1.013,0,0,0-.192-.748,1,1,0,0,0-.661-.394,1,1,0,0,0-1.142.853.387.387,0,0,1-.765-.114,1.8,1.8,0,0,1,.7-1.172,1.781,1.781,0,0,1,1.32-.332,1.755,1.755,0,0,1,1.172.7,1.785,1.785,0,0,1,.337,1.32.391.391,0,0,1-.441.328.386.386,0,0,1-.324-.437ZM352.779,192a1,1,0,0,0-.188-.748,1.005,1.005,0,0,0-1.8.459.387.387,0,1,1-.765-.114,1.779,1.779,0,1,1,3.52.512.386.386,0,0,1-.765-.11Zm.844-3.468a2.825,2.825,0,0,0-2.624-.393.39.39,0,0,1-.507-.21.386.386,0,0,1,.21-.5,3.609,3.609,0,0,1,3.358.472.387.387,0,0,1,.1.538.382.382,0,0,1-.534.1Zm-13.735-1.994a.385.385,0,1,1-.245-.73,3.613,3.613,0,0,1,3.358.5.387.387,0,0,1,.052.542.383.383,0,0,1-.542.057,2.822,2.822,0,0,0-2.623-.367Z" transform="translate(-288.379 -148.077)" fill="#31275b" fill-rule="evenodd"/>
          <path id="Path_1685" data-name="Path 1685" d="M331.717,174.917s1.7-.42,2.1-3.17.3-2.077.507-3.511a3.915,3.915,0,0,1,4.482-3.38c2.912.424,5.243.761,5.243.761s2.331.337,5.243.761a3.916,3.916,0,0,1,3.332,4.517c-.205,1.435-.109.757-.507,3.511s1.111,3.639,1.111,3.639a5.312,5.312,0,0,1,1.106-2.942s.424-2.922.8-5.475a9.849,9.849,0,0,0-2.856-8.925,12.994,12.994,0,0,0-14.715-2.134,9.847,9.847,0,0,0-5.278,7.745c-.372,2.549-.8,5.471-.8,5.471a5.286,5.286,0,0,1,.228,3.135Z" transform="translate(-284.725 -134.149)" fill="#31275b" fill-rule="evenodd"/>
          <path id="Path_1686" data-name="Path 1686" d="M343.838,161.544a10.987,10.987,0,0,0,12.266,2.208s3.153-1.858,4.133-.437c0,0,2.2-5.751-2.746-7.237,0,0,1.137-.569,1.071-1.308s-1.7-2.956-6.795-1.845a2.289,2.289,0,0,0-1.465-2.362c-1.632-.529-7.084,1.321-8.383,5.064,0,0-1.058,2.75,1.919,5.916Z" transform="translate(-289.754 -130.837)" fill="#443572" fill-rule="evenodd"/>
          <path id="Path_1687" data-name="Path 1687" d="M361.76,160.214a4.956,4.956,0,0,0-.171-.8c-1.425.748-4.482,1.771-9.231.534-4.2-1.089-4.539-5.313-4.172-8.427a9.866,9.866,0,0,0-4.229,2.921c.009,1.526.791,3.743,4.246,6.078,4.893,3.3,11.081.9,13.556-.31Z" transform="translate(-290.844 -131.353)" fill="#4f4d6e" fill-rule="evenodd"/>
          <path id="Path_1688" data-name="Path 1688" d="M254.6,141.831l.017.835a1.457,1.457,0,0,1,.713.822,9.24,9.24,0,0,1,.446,1.176l4.364-1.584.018-.341-.346-1.04a.316.316,0,0,1,0-.311l-2.213-.975Z" transform="translate(-246.993 -125.9)" fill="#fcb187" fill-rule="evenodd"/>
          <path id="Path_1689" data-name="Path 1689" d="M295.778,183.076s-20.881-10.915-24.191-14.624-4.859-8.894-9.909-23.727c0,0-.183-.691-1.255-.617a12,12,0,0,0-4.5,1.64,1.91,1.91,0,0,0-.494,1.723c.149.7,6.1,23.8,7.793,27.252S280.2,192.39,283.38,195.705s12.4-12.629,12.4-12.629Z" transform="translate(-247.378 -127.711)" fill="#2f48d3" fill-rule="evenodd"/>
          <path id="Path_1690" data-name="Path 1690" d="M259.544,144.424a11.052,11.052,0,0,0-3.616,1.482,1.91,1.91,0,0,0-.494,1.723c.149.7,6.1,23.8,7.793,27.252s16.975,17.666,20.154,20.981c.993,1.036,2.576.188,4.285-1.465.14-.87.179-1.417.079-1.509-.735-.678-1.71-1.469-7.084-5.946s-13.723-12.175-15.1-15.021-5.663-17.916-7.045-22.433c-1.333-4.347.862-5.02,1.032-5.064Z" transform="translate(-247.378 -127.868)" fill="#597bf5" fill-rule="evenodd"/>
          <path id="Path_1691" data-name="Path 1691" d="M253.622,122.872a6.494,6.494,0,0,1,1.575-3.165c.485-.512-1.846-1.929-2.755.529,0,0-.822.927-1.295.656s-1.216-7.46-1.3-8.244a.827.827,0,0,0-1.237-.62c-.241.223-.109,1.36-.04,2.807a16.273,16.273,0,0,1,0,3.232c-.123.145-.455.145-.8-.634s-2.1-5.155-2.493-5.37-1.107.184-1.041.918,2.007,5.082,2.077,5.716-.56.608-.844.262-3.048-4.762-3.406-4.976-1.076.218-.809.961,2.737,5.081,2.72,5.449-.494.643-1.3.074a24.17,24.17,0,0,0-2.645-1.95c-.3-.013-.686.906.03,1.636s2.432,2.6,2.65,2.912c1.154,1.632,1.749,3.433,2.829,4.583a3.793,3.793,0,0,0,1.465.94,5.489,5.489,0,0,0,4.342-.284c2.252-1.22,1.85-3.179,2.269-5.432Z" transform="translate(-239.66 -111.914)" fill="#fcb187" fill-rule="evenodd"/>
          <path id="Path_1692" data-name="Path 1692" d="M323.029,322.917l-1.382,1.181H310.125a3.966,3.966,0,0,1,1.2-1.872,1.752,1.752,0,0,1,.682-.144,2.411,2.411,0,0,1,.892-.691,40.853,40.853,0,0,1,4.631-1.12,13.128,13.128,0,0,1,3.442.244,15.884,15.884,0,0,0,1.71-.144Z" transform="translate(-274.241 -214.132)" fill="#fcb187" fill-rule="evenodd"/>
          <path id="Path_1693" data-name="Path 1693" d="M362.024,234.277s2.12,1.5,3.135,6.013,3.586,27.484,4.071,31.472.328,10.167-8.465,10.167H332.751v-4.1a1.3,1.3,0,0,1,1.4-1.447c.713,0,22.11-2.323,23.128-2.606a1.913,1.913,0,0,0,1.545-2.078c.044-1.221-3.459-15.348-4.194-20.64s2.361-16.937,7.391-16.784Z" transform="translate(-285.345 -171.963)" fill="#2f48d3" fill-rule="evenodd"/>
          <path id="Path_1694" data-name="Path 1694" d="M369.383,311.742c.084,3.779-1.176,8.2-8.618,8.2H332.751v-3.219c.687.858,2.064,1.836,4.762,1.836h22.07c3.376,0,9.678-2.444,9.8-6.821Z" transform="translate(-285.345 -209.98)" fill="#31275b" fill-rule="evenodd"/>
          <path id="Path_1695" data-name="Path 1695" d="M375.618,251.06c.5,3.577,2.256,11.194,3.332,16.131a42.357,42.357,0,0,1,.862,4.509,1.885,1.885,0,0,1-1.308,2c2.121-.35,2.839-1.342,3.2-2.685.315-1.141.036-5.942-.857-14.82q-.237-2.334-.526-5.046c-.716-6.695.84-11.155,2.384-13.81a14.372,14.372,0,0,1,1.346-1.946,5.278,5.278,0,0,0-1.044-1.12c-5.03-.153-8.121,11.493-7.391,16.784Z" transform="translate(-306.33 -171.963)" fill="#597bf5" fill-rule="evenodd"/>
          <path id="Path_1696" data-name="Path 1696" d="M348.584,198.7s.957-1,1.264-1.264.367.039.333.437.065,1.163-.149,1.342-1.272,0-1.5-.092.048-.424.048-.424Z" transform="translate(-293.048 -153.838)" fill="#fcccb1" fill-rule="evenodd"/>
        </g>
      </g>
      <path id="Path_1697" data-name="Path 1697" d="M207.444,243.932a.317.317,0,1,1,.635,0v1.43a.317.317,0,1,1-.635,0Zm-2.168,1.163a.322.322,0,0,1,0-.451.315.315,0,0,1,.45,0l1.01,1.011a.314.314,0,0,1,0,.45.321.321,0,0,1-.45,0Zm-.713,2.353a.319.319,0,0,1,0-.639h1.429a.319.319,0,1,1,0,.639Zm1.163,2.165a.317.317,0,1,1-.45-.447l1.01-1.015a.322.322,0,0,1,.45,0,.315.315,0,0,1,0,.451Zm2.353.712a.317.317,0,1,1-.635,0V248.9a.317.317,0,1,1,.635,0Zm2.169-1.159a.317.317,0,1,1-.451.447l-1.01-1.011a.317.317,0,0,1,.446-.451Zm.708-2.357a.319.319,0,1,1,0,.639h-1.43a.319.319,0,0,1,0-.639Zm-1.159-2.165a.315.315,0,0,1,.451,0,.323.323,0,0,1,0,.451l-1.014,1.01a.317.317,0,1,1-.446-.45Z" transform="translate(-72.768 -92.454)" fill="#a9d8fb"/>
      <g id="Group_227" data-name="Group 227" transform="translate(71.933 206.573)">
        <path id="Path_1698" data-name="Path 1698" d="M87.917,352.428h1.8a.6.6,0,0,1,.6.6v1.8a.6.6,0,0,1-.6.6h-1.8a.6.6,0,0,1-.6-.6v-1.8a.6.6,0,0,1,.6-.6Z" transform="translate(-87.318 -352.428)" fill="#ded8f9" fill-rule="evenodd"/>
        <path id="Path_1699" data-name="Path 1699" d="M99.982,352.428h1.8a.6.6,0,0,1,.6.6v1.8a.6.6,0,0,1-.6.6h-1.8a.6.6,0,0,1-.6-.6v-1.8a.6.6,0,0,1,.6-.6Z" transform="translate(-93.239 -352.428)" fill="#ded8f9" fill-rule="evenodd"/>
        <path id="Path_1700" data-name="Path 1700" d="M112.046,352.428h1.8a.6.6,0,0,1,.6.6v1.8a.6.6,0,0,1-.6.6h-1.8a.6.6,0,0,1-.6-.6v-1.8a.6.6,0,0,1,.6-.6Z" transform="translate(-99.159 -352.428)" fill="#ded8f9" fill-rule="evenodd"/>
        <path id="Path_1701" data-name="Path 1701" d="M124.12,352.428h1.8a.6.6,0,0,1,.6.6v1.8a.6.6,0,0,1-.6.6h-1.8a.6.6,0,0,1-.6-.6v-1.8a.6.6,0,0,1,.6-.6Z" transform="translate(-105.085 -352.428)" fill="#ded8f9" fill-rule="evenodd"/>
      </g>
      <path id="Path_1702" data-name="Path 1702" d="M162.5,78.868a.317.317,0,0,1,.634,0V80.3a.317.317,0,1,1-.634,0Zm-2.169,1.164a.318.318,0,0,1,.45-.45l1.01,1.009a.317.317,0,0,1-.446.451Zm-.708,2.352a.318.318,0,0,1-.319-.319.314.314,0,0,1,.319-.314h1.43a.313.313,0,0,1,.315.314.317.317,0,0,1-.315.319Zm1.159,2.169a.318.318,0,0,1-.45-.45l1.014-1.014a.317.317,0,0,1,.446,0,.314.314,0,0,1,0,.45Zm2.353.709a.317.317,0,1,1-.634,0v-1.43a.317.317,0,0,1,.634,0ZM165.3,84.1a.319.319,0,0,1-.451.45l-1.01-1.014a.314.314,0,0,1,0-.45.323.323,0,0,1,.451,0Zm.713-2.352a.313.313,0,0,1,.315.314.317.317,0,0,1-.315.319h-1.43a.318.318,0,0,1-.319-.319.314.314,0,0,1,.319-.314Zm-1.164-2.169a.319.319,0,0,1,.451.45l-1.01,1.01a.322.322,0,0,1-.451,0,.315.315,0,0,1,0-.451Z" transform="translate(-50.712 -11.45)" fill="#a9d8fb"/>
      <g id="Group_228" data-name="Group 228" transform="translate(126.004 128.883)">
        <path id="Path_1703" data-name="Path 1703" d="M194.1,199.87h1.8a.6.6,0,0,1,.6.6v1.8a.6.6,0,0,1-.6.6h-1.8a.6.6,0,0,1-.6-.6v-1.8a.6.6,0,0,1,.6-.6Z" transform="translate(-193.496 -199.87)" fill="#f1effd" fill-rule="evenodd"/>
        <path id="Path_1704" data-name="Path 1704" d="M206.169,199.87h1.8a.6.6,0,0,1,.6.6v1.8a.6.6,0,0,1-.6.6h-1.8a.6.6,0,0,1-.6-.6v-1.8a.6.6,0,0,1,.6-.6Z" transform="translate(-199.421 -199.87)" fill="#f1effd" fill-rule="evenodd"/>
        <path id="Path_1705" data-name="Path 1705" d="M218.233,199.87h1.8a.6.6,0,0,1,.6.6v1.8a.6.6,0,0,1-.6.6h-1.8a.6.6,0,0,1-.6-.6v-1.8a.6.6,0,0,1,.6-.6Z" transform="translate(-205.342 -199.87)" fill="#f1effd" fill-rule="evenodd"/>
        <path id="Path_1706" data-name="Path 1706" d="M230.306,199.87h1.8a.6.6,0,0,1,.6.6v1.8a.6.6,0,0,1-.6.6h-1.8a.6.6,0,0,1-.6-.6v-1.8a.6.6,0,0,1,.6-.6Z" transform="translate(-211.267 -199.87)" fill="#f1effd" fill-rule="evenodd"/>
      </g>
      <g id="Group_229" data-name="Group 229" transform="translate(261.874 57.01)">
        <path id="Path_1707" data-name="Path 1707" d="M502.035,106.238v39.326h-6.224a8.114,8.114,0,0,0-8.089,8.09h0a8.116,8.116,0,0,0,8.089,8.089h6.224v80.615H466.41V61.293a31.126,31.126,0,0,1,17.565,27.939h0a17.056,17.056,0,0,0,17.007,17.006Z" transform="translate(-463.3 -59.99)" fill="#78c6ff" fill-rule="evenodd"/>
        <path id="Path_1708" data-name="Path 1708" d="M466.521,61.778V241.1H460.3V58.734a30.925,30.925,0,0,1,6.218,3.044Z" transform="translate(-460.303 -58.734)" fill="#c7e7ff" fill-rule="evenodd"/>
        <path id="Path_1709" data-name="Path 1709" d="M481.605,72.568v172.42h-6.222V66.651a31.577,31.577,0,0,1,6.222,5.917Z" transform="translate(-467.704 -62.619)" fill="#c7e7ff" fill-rule="evenodd"/>
        <path id="Path_1710" data-name="Path 1710" d="M496.693,104.951V252.6h-6.222V82.168a30.8,30.8,0,0,1,5.312,17.308h0a16.841,16.841,0,0,0,.91,5.474Z" transform="translate(-475.108 -70.234)" fill="#c7e7ff" fill-rule="evenodd"/>
        <path id="Path_1711" data-name="Path 1711" d="M511.779,139.237v42.256a8.111,8.111,0,0,0-4.844,7.4h0a8.112,8.112,0,0,0,4.844,7.4v81.3h-6.222V133.106a17.207,17.207,0,0,0,6.222,6.131Z" transform="translate(-482.512 -95.232)" fill="#c7e7ff" fill-rule="evenodd"/>
        <path id="Path_1712" data-name="Path 1712" d="M526.866,148.092v39.342h-4.439a7.984,7.984,0,0,0-1.783.2V146.613a16.922,16.922,0,0,0,6.222,1.479Zm0,55.522v80.615h-6.222V203.413a7.984,7.984,0,0,0,1.783.2Z" transform="translate(-489.916 -101.861)" fill="#c7e7ff" fill-rule="evenodd"/>
      </g>
      <g id="Group_230" data-name="Group 230" transform="translate(214.839 224.982)">
        <path id="Path_1713" data-name="Path 1713" d="M368.54,388.578h1.8a.6.6,0,0,1,.6.6v1.8a.6.6,0,0,1-.6.6h-1.8a.6.6,0,0,1-.6-.6v-1.8a.6.6,0,0,1,.6-.6Z" transform="translate(-367.941 -388.578)" fill="#f1effd" fill-rule="evenodd"/>
        <path id="Path_1714" data-name="Path 1714" d="M380.614,388.578h1.8a.6.6,0,0,1,.6.6v1.8a.6.6,0,0,1-.6.6h-1.8a.6.6,0,0,1-.6-.6v-1.8a.6.6,0,0,1,.6-.6Z" transform="translate(-373.867 -388.578)" fill="#f1effd" fill-rule="evenodd"/>
        <path id="Path_1715" data-name="Path 1715" d="M392.678,388.578h1.8a.6.6,0,0,1,.6.6v1.8a.6.6,0,0,1-.6.6h-1.8a.6.6,0,0,1-.6-.6v-1.8a.6.6,0,0,1,.6-.6Z" transform="translate(-379.786 -388.578)" fill="#f1effd" fill-rule="evenodd"/>
        <path id="Path_1716" data-name="Path 1716" d="M404.751,388.578h1.8a.6.6,0,0,1,.6.6v1.8a.6.6,0,0,1-.6.6h-1.8a.6.6,0,0,1-.6-.6v-1.8a.6.6,0,0,1,.6-.6Z" transform="translate(-385.712 -388.578)" fill="#f1effd" fill-rule="evenodd"/>
      </g>
      <g id="Group_231" data-name="Group 231" transform="translate(225.15 61.813)">
        <path id="Path_1717" data-name="Path 1717" d="M388.788,68.164h1.8a.6.6,0,0,1,.6.6v1.8a.6.6,0,0,1-.6.6h-1.8a.6.6,0,0,1-.6-.6v-1.8a.6.6,0,0,1,.6-.6Z" transform="translate(-388.189 -68.164)" fill="#f1effd" fill-rule="evenodd"/>
        <path id="Path_1718" data-name="Path 1718" d="M400.862,68.164h1.8a.6.6,0,0,1,.6.6v1.8a.6.6,0,0,1-.6.6h-1.8a.6.6,0,0,1-.6-.6v-1.8a.6.6,0,0,1,.6-.6Z" transform="translate(-394.115 -68.164)" fill="#f1effd" fill-rule="evenodd"/>
        <path id="Path_1719" data-name="Path 1719" d="M412.928,68.164h1.8a.6.6,0,0,1,.6.6v1.8a.6.6,0,0,1-.6.6h-1.8a.6.6,0,0,1-.6-.6v-1.8a.6.6,0,0,1,.6-.6Z" transform="translate(-400.035 -68.164)" fill="#f1effd" fill-rule="evenodd"/>
        <path id="Path_1720" data-name="Path 1720" d="M424.991,68.164h1.8a.6.6,0,0,1,.6.6v1.8a.6.6,0,0,1-.6.6h-1.8a.6.6,0,0,1-.6-.6v-1.8a.6.6,0,0,1,.6-.6Z" transform="translate(-405.956 -68.164)" fill="#f1effd" fill-rule="evenodd"/>
      </g>
      <g id="Group_232" data-name="Group 232" transform="translate(311.433 172.687)">
        <path id="Path_1721" data-name="Path 1721" d="M558.22,285.887h1.8a.6.6,0,0,1,.6.6v1.8a.6.6,0,0,1-.6.6h-1.8a.6.6,0,0,1-.6-.6v-1.8a.6.6,0,0,1,.6-.6Z" transform="translate(-557.621 -285.887)" fill="#f1effd" fill-rule="evenodd"/>
        <path id="Path_1722" data-name="Path 1722" d="M570.284,285.887h1.8a.6.6,0,0,1,.6.6v1.8a.6.6,0,0,1-.6.6h-1.8a.6.6,0,0,1-.6-.6v-1.8a.6.6,0,0,1,.6-.6Z" transform="translate(-563.541 -285.887)" fill="#f1effd" fill-rule="evenodd"/>
        <path id="Path_1723" data-name="Path 1723" d="M582.35,285.887h1.8a.6.6,0,0,1,.6.6v1.8a.6.6,0,0,1-.6.6h-1.8a.6.6,0,0,1-.6-.6v-1.8a.6.6,0,0,1,.6-.6Z" transform="translate(-569.462 -285.887)" fill="#f1effd" fill-rule="evenodd"/>
        <path id="Path_1724" data-name="Path 1724" d="M594.422,285.887h1.8a.6.6,0,0,1,.6.6v1.8a.6.6,0,0,1-.6.6h-1.8a.6.6,0,0,1-.6-.6v-1.8a.6.6,0,0,1,.6-.6Z" transform="translate(-575.387 -285.887)" fill="#f1effd" fill-rule="evenodd"/>
      </g>
      <g id="Group_233" data-name="Group 233" transform="translate(76.879 162.462)">
        <path id="Path_1725" data-name="Path 1725" d="M147.247,338.062a59.72,59.72,0,0,1,1.4-12.542c.009-.034.018-.074.026-.108.048-.193.2-.56.582-.455a33.533,33.533,0,0,1,8.689,6.533c3.948,4.018,3.883-2.025.455-4.4s-6.927-3.38-7.976-4.29a2.214,2.214,0,0,1-.866-1.949h0c.818-4.605,1.429-9.324,1.858-13.972l0-.005s.2-1.013,1.159.175,4.7,5.331,7.609,5.6.245-4.334-3.862-6.594-4.609-2.741-4.569-3.292v-.005c.262-3.66.416-7.241.472-10.652h0s.166-.613.708-.17,4.627,5.116,6.8,4.622.061-4.478-3.411-5.872-4.076-1.815-4.08-2.331h0c-.035-10.1-.927-18.231-2.269-21.69-1.4-3.6,7.469,4.548,15.663,17.851a3.469,3.469,0,0,1,.2,3.376c-.49,1.575-1.028,5.124.258,4.3s1.461-3.945,1.565-4a.116.116,0,0,1,.157.026c1.342,2.379,2.632,4.885,3.831,7.486,1.233,2.921-.416,4.915-2.711,7.766-2.379,2.956-1.95,6.1.577,4.775s3.7-7.46,3.914-7.626c.193-.149.333.074.354.119A71.6,71.6,0,0,1,177.6,314.1c.171,2.274-1.684,4.158-3.629,7.233-1.959,3.1-.455,4.968,1.093,4.543s2.589-4.2,2.926-4.447c.311-.228.407-.036.42,0a43.035,43.035,0,0,1-1.435,13.193,87.7,87.7,0,0,1-3.284,9.818H153.627Z" transform="translate(-121.674 -265.807)" fill="#0091ff" fill-rule="evenodd"/>
        <path id="Path_1726" data-name="Path 1726" d="M180.267,356.339a351.9,351.9,0,0,0-11.7-65.721.793.793,0,1,0-1.522.446A350.056,350.056,0,0,1,178.7,356.339Z" transform="translate(-131.374 -277.704)" fill="#31275b" fill-rule="evenodd"/>
        <path id="Path_1727" data-name="Path 1727" d="M205.307,323.047c15.218-9.013,19.421,9.743,16.338,18.24-2.287,6.288-10.394,20.066-16.105,30.073h-21.23c2.755-21.026,9.8-41.679,21-48.313Z" transform="translate(-139.863 -292.724)" fill="#5ebafe" fill-rule="evenodd"/>
        <path id="Path_1728" data-name="Path 1728" d="M202.461,376.471a248.565,248.565,0,0,1,19.665-45.024.865.865,0,0,1,.979-.337.519.519,0,0,1,.346.766,247.646,247.646,0,0,0-19.525,44.6Z" transform="translate(-148.771 -297.835)" fill="#dbdbfd" fill-rule="evenodd"/>
        <path id="Path_1729" data-name="Path 1729" d="M97.266,295.047c4.692-17.736,21.23-8.024,28.332,7.137,4.01,8.558,10.954,31.136,18.768,51.929H124.523l-5.9-3.311C104.9,325.133,95.39,302.131,97.266,295.047Z" transform="translate(-97.03 -275.477)" fill="#e1f2ff" fill-rule="evenodd"/>
        <path id="Path_1730" data-name="Path 1730" d="M138.319,356.452a327.608,327.608,0,0,1-22.993-56.542.738.738,0,0,1,1.417-.411,324.294,324.294,0,0,0,25.179,60.551Z" transform="translate(-105.995 -282.081)" fill="#fff" fill-rule="evenodd"/>
      </g>
      <g id="Group_234" data-name="Group 234" transform="translate(288.959 147.396)">
        <rect id="Rectangle_209" data-name="Rectangle 209" width="18.873" height="5.719" transform="translate(50.054 37.632)" fill="#bbbbf6"/>
        <rect id="Rectangle_210" data-name="Rectangle 210" width="18.879" height="5.719" transform="translate(41.797 44.498)" fill="#bbbbf6"/>
        <path id="Path_1731" data-name="Path 1731" d="M634.4,323.6h11.943a40.2,40.2,0,0,1,.617,5.719H634.4Z" transform="translate(-572.825 -279.104)" fill="#bbbbf6" fill-rule="evenodd"/>
        <rect id="Rectangle_211" data-name="Rectangle 211" width="18.873" height="5.721" transform="translate(50.054 51.358)" fill="#bbbbf6"/>
        <path id="Path_1732" data-name="Path 1732" d="M650.609,337.072h4.325c0,.105,0,.211,0,.315h0a40.026,40.026,0,0,1-.364,5.406h-3.965Z" transform="translate(-580.781 -285.715)" fill="#bbbbf6" fill-rule="evenodd"/>
        <path id="Path_1733" data-name="Path 1733" d="M634.4,350.555h12.047a40.155,40.155,0,0,1-1.382,5.72H634.4Z" transform="translate(-572.825 -292.331)" fill="#bbbbf6" fill-rule="evenodd"/>
        <path id="Path_1734" data-name="Path 1734" d="M569.164,362.167a.319.319,0,1,1,.639,0V363.6a.319.319,0,0,1-.639,0ZM567,363.326a.316.316,0,0,1,0-.451.323.323,0,0,1,.451,0l1.01,1.014a.319.319,0,0,1-.45.451Zm-.712,2.357a.319.319,0,0,1,0-.639h1.429a.319.319,0,1,1,0,.639Zm1.163,2.164A.319.319,0,0,1,567,367.4l1.011-1.01a.319.319,0,0,1,.45.451Zm2.353.713a.319.319,0,0,1-.639,0v-1.431a.319.319,0,0,1,.639,0Zm2.164-1.164a.316.316,0,0,1,0,.451.311.311,0,0,1-.447,0l-1.013-1.01a.318.318,0,0,1,.45-.451Zm.713-2.352a.319.319,0,0,1,0,.639h-1.431a.319.319,0,0,1,0-.639Zm-1.16-2.169a.317.317,0,0,1,.447.451l-1.01,1.014a.318.318,0,0,1-.45-.451Z" transform="translate(-539.243 -297.874)" fill="#8b77e6"/>
        <path id="Path_1735" data-name="Path 1735" d="M638,282.454c4.39,14.251,6.029,22,8.387,28.4a39.959,39.959,0,0,0,1.8-11.895h0V278.514c0-37.174-15.6-13.621-10.189,3.94Z" transform="translate(-574.035 -247.289)" fill="#0091ff" fill-rule="evenodd"/>
        <path id="Path_1736" data-name="Path 1736" d="M523.049,389.645a55.041,55.041,0,0,1-9-17.978c-3.634-12.839,11.282,1.387,23.05,17.978Z" transform="translate(-513.489 -300.255)" fill="#0091ff" fill-rule="evenodd"/>
        <path id="Path_1737" data-name="Path 1737" d="M559.941,363.033c-3.673-6.211-7.319-14.383-7.893-22.985-1.206-18.1-1.553-23.788-5-26.719-2.956-2.514,32.7-1.976,47.651,37.708a40.6,40.6,0,0,1-16.8,12Z" transform="translate(-529.872 -273.643)" fill="#0091ff" fill-rule="evenodd"/>
        <path id="Path_1738" data-name="Path 1738" d="M555.155,312.716c13.5,12.279,24.116,30.436,31.9,47.381-.371.219-.748.433-1.124.638a190.535,190.535,0,0,0-17.094-30.307,100.5,100.5,0,0,0-15.855-17.921c.644.031,1.374.1,2.173.21Z" transform="translate(-532.87 -273.659)" fill="#fff" fill-rule="evenodd"/>
        <path id="Path_1739" data-name="Path 1739" d="M602.253,255.4c2.979,7.333,7.368,23.779,12.559,41.482a40.489,40.489,0,0,1-14.68,22.884c-12.576-17.956-23.527-38.355-27.62-54.531-8.234-32.552,17.383-40.309,29.74-9.835Z" transform="translate(-541.67 -236.222)" fill="#94d1ff" fill-rule="evenodd"/>
        <path id="Path_1740" data-name="Path 1740" d="M617.871,321.349c-17.413-30.448-25.524-66.174-25.56-66.327a.651.651,0,0,1,1.268-.293c.036.153,8.034,35.373,25.131,65.5-.276.376-.556.753-.84,1.119Z" transform="translate(-552.163 -245.057)" fill="#fff" fill-rule="evenodd"/>
        <path id="Path_1741" data-name="Path 1741" d="M576.214,387.171a43.141,43.141,0,0,0-3.176-9.368c-5.8-12.182-20.311-16.922-24.439-15.069-3.373,1.518-10.163,10.911-5.095,24.773h31.852c.288-.109.573-.219.857-.337Z" transform="translate(-527.328 -298.118)" fill="#5ebafe" fill-rule="evenodd"/>
        <path id="Path_1742" data-name="Path 1742" d="M572.141,389.076c.739-1.99,2.266-6.363,2.465-9a.365.365,0,0,0-.34-.4.37.37,0,0,0-.4.341,40.2,40.2,0,0,1-2.335,8.579,82.526,82.526,0,0,0-6.279-10.373,33.807,33.807,0,0,0,1.172-8.908.372.372,0,1,0-.743.027,32.235,32.235,0,0,1-.993,8.1,83.486,83.486,0,0,0-10.334-11.7.741.741,0,0,0-1.014,1.08c1.985,1.863,3.8,3.757,5.479,5.663a22.511,22.511,0,0,0-6.078-.336.374.374,0,0,0-.333.406.369.369,0,0,0,.406.328,22.834,22.834,0,0,1,6.8.516,80.649,80.649,0,0,1,6.686,9.017,59.724,59.724,0,0,0-15.471.476.371.371,0,1,0,.136.73,59.02,59.02,0,0,1,15.838-.407c1.242,1.99,2.344,3.954,3.318,5.86Z" transform="translate(-531.664 -299.686)" fill="#fff" fill-rule="evenodd"/>
      </g>
      <g id="Group_236" data-name="Group 236" transform="translate(302.703 77.882)">
        <g id="Group_235" data-name="Group 235" transform="translate(0 3.704)">
          <path id="Path_1743" data-name="Path 1743" d="M541.159,106.993h2.046a.683.683,0,0,1,.682.682v2.042a.683.683,0,0,1-.682.682h-2.046a.682.682,0,0,1-.682-.682v-2.042a.682.682,0,0,1,.682-.682Z" transform="translate(-540.477 -106.993)" fill="#a9d8fb" fill-rule="evenodd"/>
          <path id="Path_1744" data-name="Path 1744" d="M554.879,106.993h2.042a.683.683,0,0,1,.682.682v2.042a.683.683,0,0,1-.682.682h-2.042a.683.683,0,0,1-.682-.682v-2.042a.683.683,0,0,1,.682-.682Z" transform="translate(-547.21 -106.993)" fill="#a9d8fb" fill-rule="evenodd"/>
          <path id="Path_1745" data-name="Path 1745" d="M568.6,106.993h2.047a.682.682,0,0,1,.681.682v2.042a.682.682,0,0,1-.681.682H568.6a.681.681,0,0,1-.677-.682v-2.042a.681.681,0,0,1,.677-.682Z" transform="translate(-553.945 -106.993)" fill="#a9d8fb" fill-rule="evenodd"/>
          <path id="Path_1746" data-name="Path 1746" d="M582.315,106.993h2.047a.681.681,0,0,1,.677.682v2.042a.681.681,0,0,1-.677.682h-2.047a.683.683,0,0,1-.682-.682v-2.042a.683.683,0,0,1,.682-.682Z" transform="translate(-560.674 -106.993)" fill="#a9d8fb" fill-rule="evenodd"/>
        </g>
        <path id="Path_1747" data-name="Path 1747" d="M640.987,100.083a.363.363,0,0,1,.726,0v1.627a.363.363,0,0,1-.726,0Zm-2.462,1.32a.364.364,0,0,1,0-.511.355.355,0,0,1,.511,0l1.15,1.15a.362.362,0,0,1-.511.512Zm-.81,2.672a.361.361,0,1,1,0-.722h1.628a.361.361,0,0,1,0,.722Zm1.321,2.466a.362.362,0,0,1-.511-.511l1.15-1.15a.362.362,0,1,1,.511.512Zm2.677.809a.363.363,0,0,1-.726,0v-1.628a.363.363,0,0,1,.726,0Zm2.462-1.32a.362.362,0,0,1-.511.511l-1.151-1.15a.362.362,0,1,1,.511-.512Zm.809-2.677a.361.361,0,1,1,0,.722h-1.627a.361.361,0,0,1,0-.722Zm-1.32-2.462a.356.356,0,0,1,.511,0,.365.365,0,0,1,0,.511l-1.151,1.15a.362.362,0,0,1-.511-.512Z" transform="translate(-588.019 -99.72)" fill="#a9d8fb"/>
      </g>
      <path id="Path_1748" data-name="Path 1748" d="M89.019,226.226a.361.361,0,1,1,.722,0v1.627a.361.361,0,0,1-.722,0Zm-2.462,1.32a.356.356,0,0,1,0-.512.364.364,0,0,1,.511,0l1.146,1.15a.36.36,0,0,1-.508.511Zm-.809,2.677a.363.363,0,0,1,0-.726h1.627a.363.363,0,0,1,0,.726Zm1.32,2.462a.363.363,0,0,1-.511,0,.356.356,0,0,1,0-.512l1.15-1.15a.36.36,0,1,1,.508.512Zm2.672.809a.361.361,0,1,1-.722,0v-1.627a.361.361,0,1,1,.722,0Zm2.466-1.32a.362.362,0,1,1-.511.512l-1.15-1.15a.362.362,0,1,1,.512-.512Zm.809-2.676a.363.363,0,0,1,0,.726H91.39a.363.363,0,0,1,0-.726Zm-1.32-2.462a.362.362,0,1,1,.511.512l-1.15,1.15a.362.362,0,0,1-.512-.511Z" transform="translate(-14.437 -83.743)" fill="#a9d8fb"/>
      <g id="Group_237" data-name="Group 237" transform="translate(55.968 237.156)">
        <path id="Path_1749" data-name="Path 1749" d="M60.048,412.484H376.815a4.092,4.092,0,0,1,4.085,4.08h0a4.1,4.1,0,0,1-4.085,4.084H363.047a2.271,2.271,0,0,0-2.267,2.267h0a2.275,2.275,0,0,0,2.267,2.267h5.035a2.843,2.843,0,0,1,2.836,2.835h0a2.841,2.841,0,0,1-2.836,2.831H69.235a2.84,2.84,0,0,1-2.837-2.831h0a2.842,2.842,0,0,1,2.837-2.835H73.2a2.275,2.275,0,0,0,2.267-2.267h0a2.272,2.272,0,0,0-2.267-2.267H60.048a4.093,4.093,0,0,1-4.08-4.084h0a4.092,4.092,0,0,1,4.08-4.08Zm2.125,18.364h0a2.729,2.729,0,0,1-2.72-2.721V427.9a2.729,2.729,0,0,1,2.72-2.721h0a2.726,2.726,0,0,1,2.721,2.721v.224a2.726,2.726,0,0,1-2.721,2.721Z" transform="translate(-55.968 -412.484)" fill="#31275b" fill-rule="evenodd"/>
      </g>
    </g>
  </g>
</svg>
