<svg xmlns="http://www.w3.org/2000/svg" xmlns:xlink="http://www.w3.org/1999/xlink" width="328" height="1213.478" viewBox="0 0 328 1213.478">
  <defs>
    <style>
      .cls-1 {
        fill: #fff;
      }

      .cls-2, .cls-31 {
        opacity: 0.86;
      }

      .cls-2 {
        fill: url(#linear-gradient);
      }

      .cls-3 {
        fill: #3adcf1;
      }

      .cls-4 {
        fill: #41e4eb;
      }

      .cls-5 {
        fill: #44e8e8;
      }

      .cls-6 {
        fill: #49eee4;
      }

      .cls-7 {
        fill: #38d9f4;
      }

      .cls-8 {
        fill: #0eb2f2;
      }

      .cls-9 {
        fill: #11b5f1;
      }

      .cls-10 {
        fill: #16b8ef;
      }

      .cls-11 {
        fill: #11b2f0;
      }

      .cls-12 {
        fill: #4bf0e3;
      }

      .cls-13 {
        fill: #0cadf2;
      }

      .cls-14 {
        fill: #55eee7;
      }

      .cls-15 {
        fill: #19bdee;
      }

      .cls-16 {
        fill: #8ef4ee;
      }

      .cls-17 {
        fill: #75f0ed;
      }

      .cls-18 {
        fill: #16bbef;
      }

      .cls-19 {
        fill: #09adf3;
      }

      .cls-20 {
        fill: #13b9f0;
      }

      .cls-21 {
        fill: #3de0ee;
      }

      .cls-22 {
        fill: #4ef4e0;
      }

      .cls-23 {
        fill: #56f7df;
      }

      .cls-24 {
        fill: #8cf9e9;
      }

      .cls-25 {
        fill: #91f5ee;
      }

      .cls-26 {
        fill: #b3f8f3;
      }

      .cls-27 {
        fill: #d3fcf6;
      }

      .cls-28 {
        fill: #96f6ee;
      }

      .cls-29 {
        clip-path: url(#clip-path);
      }

      .cls-30 {
        fill: #09f;
        opacity: 0.87;
      }

      .cls-31 {
        fill: #9bf0fe;
      }

      .cls-32 {
        fill: #ffbc5b;
        opacity: 0.75;
      }
    </style>
    <linearGradient id="linear-gradient" x1="0.5" x2="0.5" y2="1.414" gradientUnits="objectBoundingBox">
      <stop offset="0" stop-color="#d2f8fe"/>
      <stop offset="1" stop-color="#00dfff"/>
    </linearGradient>
    <clipPath id="clip-path">
      <rect id="Rectangle_180" data-name="Rectangle 180" class="cls-1" width="311" height="146" transform="translate(21214.73 -1152)"/>
    </clipPath>
  </defs>
  <g id="Group_246" data-name="Group 246" transform="translate(-1632)">
    <g id="Group_243" data-name="Group 243" transform="translate(-7 18)">
      <path id="Path_520" data-name="Path 520" class="cls-2" d="M122.751,0C188.335,0,241.5,61.892,241.5,138.239S188.335,276.478,122.751,276.478s-141.1-3.971-141.1-80.319S57.166,0,122.751,0Z" transform="translate(1725.498 919)"/>
      <g id="Group_222" data-name="Group 222">
        <path id="Path_1620" data-name="Path 1620" class="cls-3" d="M.309,90.048a1.6,1.6,0,0,1-.082-1.755Q3.221,82.878,6.1,77.4c2.8-5.31,5.542-10.655,8.361-15.956,2.726-5.127,5.545-10.2,8.278-15.326,4.868-9.122,9.687-18.271,14.555-27.393q4.6-8.612,9.29-17.17A2.805,2.805,0,0,0,47.094,0H66.466c.325.833-.17,1.5-.485,2.177-2.709,5.853-6.024,11.387-9.011,17.094C51.483,29.755,45.812,40.14,40.285,50.6a76.889,76.889,0,0,0-4.939,9.954c-2.647,3.716-6.074,6.67-9.464,9.661-5.042,4.539-10.1,9.062-15.362,13.345a11.109,11.109,0,0,0-3.528,5.356,5.276,5.276,0,0,1-.933,2.308c-.087.051-.174.1-.262.15Z" transform="translate(1919.791 505.137) rotate(90)"/>
        <path id="Path_1621" data-name="Path 1621" class="cls-4" d="M57.412,0c.171,1.9-1.1,3.294-1.88,4.793-3.036,5.846-6.325,11.561-9.391,17.393C42.822,28.5,39.532,34.82,36.055,41.047c-1.452,2.6-2.456,5.459-4,8-1.265,2.08-2.339,4.238-3.485,6.371-2.792,5.2-5.651,10.354-8.311,15.624-1.832,3.631-3.975,7.106-6,10.636a1.762,1.762,0,0,0-.266,1.764c-1.809.18-3.072-1.066-4.5-1.808-1.644-.855-3.163-1.952-4.736-2.944-.885-1.5-2.536-2.1-3.765-3.19C.473,75.036-.269,74.78.1,73.866c1.679-1.517,1.986-3.8,3.111-5.643,3.307-5.434,5.9-11.273,8.94-16.852Q16,44.3,19.863,37.227c1.968-3.618,3.676-7.4,5.712-10.966,2.387-4.179,4.315-8.615,7.02-12.613.607-.9,1.3-1.279,2.233-.412.41.732.575,1.57.993,2.3.843,2.093,1.119,4.369,1.814,6.1.2.236.095.183.055.079-.811-2.128-1.038-4.439-2.033-6.51a87.037,87.037,0,0,0-3.872-8.356A43.339,43.339,0,0,0,28.8,1.835C28.441,1.28,27.79.795,28.316,0Z" transform="translate(1919.79 473.328) rotate(90)"/>
        <path id="Path_1622" data-name="Path 1622" class="cls-5" d="M48.3,13.416c-.516-.277-1.19-.587-1.435.137-.983,2.9-3.616,4.924-4.168,8.048a4.4,4.4,0,0,1-.837,1.436c-2.238,3.393-3.913,7.095-5.809,10.674C34.063,37.46,31.8,41.1,30,44.888c-1.31,2.769-2.994,5.35-4.265,8.152-1.448,3.193-3.368,6.238-4.878,9.447-1.614,3.431-4.247,6.315-5.292,10.049a1.962,1.962,0,0,1-1.793,1.558,1.436,1.436,0,0,1-1.544-.354C8.909,70.561,5.19,67.8,2.225,64.242A8.5,8.5,0,0,0,.779,62.464,2.367,2.367,0,0,1,0,60.858c.819-2.793,2.471-5.18,3.848-7.687,6.817-12.415,13.216-25.053,20.078-37.445,2.307-4.166,4.36-8.48,6.626-12.675A8.371,8.371,0,0,1,32.737,0h8.046c2.34,1.855,3.508,4.537,4.95,7.026.882,1.739,1.817,3.452,2.546,5.265C48.43,12.67,48.718,13.034,48.3,13.416Z" transform="translate(1919.79 459.656) rotate(90)"/>
        <path id="Path_1623" data-name="Path 1623" class="cls-6" d="M42.161,0Q38.736,6.593,35.31,13.185c-4.839,9.288-10.029,18.387-14.746,27.743-3.427,6.8-7.221,13.411-10.853,20.107-.582.214-.936-.148-1.229-.54A66.7,66.7,0,0,1,1.768,50.209c-.485-1.338-1.4-2.486-1.734-3.892a2.506,2.506,0,0,1,.02-.926c2.153-3.7,4.654-7.175,7.071-10.7,6.511-9.495,12.965-19.03,19.513-28.5,1.118-1.617,2.332-3.168,3.375-4.835A3.4,3.4,0,0,1,31.579,0Z" transform="translate(1919.79 450.231) rotate(90)"/>
        <path id="Path_1624" data-name="Path 1624" class="cls-7" d="M0,60.633c.556-3.173,2.473-5.754,3.893-8.516,4.241-8.248,8.859-16.3,13.086-24.558,3.908-7.64,8.1-15.134,12.154-22.7.855-1.6,1.636-3.235,2.452-4.854L43.4,0c.66,1.167-.235,2.013-.684,2.884C35.791,16.3,28.148,29.262,18.562,40.99c-1.776,2.364-3.8,4.525-5.637,6.838a149.773,149.773,0,0,1-10.7,11.507C1.6,59.925,1.118,60.852,0,60.633Z" transform="translate(1919.793 540.018) rotate(90)"/>
        <path id="Path_1625" data-name="Path 1625" class="cls-8" d="M43.553,0h.432c.814,1.419.185,2.78-.393,3.99-2.26,4.737-4.3,9.572-6.477,14.345-2.148,4.707-3.937,9.569-6.056,14.283q-3.743,8.325-7.265,16.744c-1.8,4.315-4.068,8.431-5.544,12.882C16.273,66.034,14.639,70,12.473,73.695a10.024,10.024,0,0,0-.958,2.985c-.4.924-1.152,1.655-2.085,1.293C6.175,76.708,2.861,75.527,0,73.427c.639-2.909,2.2-5.4,3.592-7.977,2.978-4.836,5.885-9.714,8.795-14.591,2.839-4.757,5.953-9.358,8.667-14.175,3.241-5.752,6.792-11.308,10.13-17,3.759-6.4,7.539-12.8,11.564-19.039A1.768,1.768,0,0,1,43.553,0Z" transform="translate(1919.789 562.605) rotate(90)"/>
        <path id="Path_1626" data-name="Path 1626" class="cls-9" d="M19.226,65.665,15.434,73.25c-.734.617-1.45.124-2.156-.059a12.988,12.988,0,0,0-2.214-.561c-1.486-.117-1.794.308-1.2,1.65.387.876,1.15,1.589,1.133,2.64-1.413,2.21-2.72,4.489-4.152,6.685a10.811,10.811,0,0,0-1.756,4.171c-.311.627-.93.81-1.507,1.057-1.122.211-2.145,1.078-3.386.523-.724-2.287.745-4.1,1.607-5.862C7.308,72.238,12.288,60.737,17.707,49.442c2.391-4.983,4.64-10.03,6.9-15.072,2.27-4.246,4.327-8.605,6.72-12.79,3.6-6.3,6.712-12.87,10.268-19.2A5.975,5.975,0,0,1,43.245,0h3.37c.536.722.034,1.352-.23,1.957-4.517,10.33-8.658,20.816-13.126,31.168-2.8,6.484-5.42,13.051-8.151,19.567C23.274,57.066,21.709,61.579,19.226,65.665Z" transform="translate(1919.789 547.333) rotate(90)"/>
        <path id="Path_1627" data-name="Path 1627" class="cls-10" d="M43.617.006c-.914,2.825-2.635,5.241-4,7.837C36.087,14.575,32.507,21.282,28.944,28q-1.721,3.246-3.447,6.49a6.745,6.745,0,0,0-1.7,2.61c-3.44,6.523-7.779,12.488-11.679,18.723C8.888,60.977,5.692,66.16,2.286,71.2c-.528.78-.826,2.046-2.27,1.489-.166-2.391,1.047-4.43,1.793-6.558,1.361-3.886,2.761-7.765,4.283-11.592,1.8-4.536,3.57-9.083,5.082-13.726C14.984,35.662,18.893,30.579,22.4,25.2,27.45,17.478,31.726,9.317,36.03,1.172A8.8,8.8,0,0,0,36.457,0Z" transform="translate(1919.793 546.961) rotate(90)"/>
        <path id="Path_1629" data-name="Path 1629" class="cls-11" d="M0,65.665c.086-1.983,1.424-3.462,2.119-5.2q4.454-11.14,9.083-22.21c3.013-7.2,6.2-14.32,9.046-21.593C22.446,11.037,25,5.549,27.389,0H39.6C37.192,4.4,34.357,8.54,31.9,12.895c-4.455,7.9-9.557,15.4-13.885,23.381-2.257,4.159-5.021,8.04-7.466,12.1-3.276,5.442-6.46,10.939-9.7,16.4A5.355,5.355,0,0,1,0,65.665Z" transform="translate(1919.788 566.559) rotate(90)"/>
        <path id="Path_1630" data-name="Path 1630" class="cls-12" d="M.273,34.591Q3.647,28.348,7.02,22.105C10.5,15.655,13.992,9.21,17.439,2.742a20.372,20.372,0,0,0,1-2.742H35.431c0,1.5-1.247,3.082-2.07,4.048C24.61,14.317,19.524,25.81,10.747,36.057c-1.3,1.514-4.791,8.6-6.689,9.555-.47.031-2.882-7.363-3.176-7.7C.358,36.863-.418,35.861.273,34.591Z" transform="translate(1919.79 445.717) rotate(90)"/>
        <path id="Path_1631" data-name="Path 1631" class="cls-13" d="M0,62.3c.139-2.449,1.6-4.413,2.5-6.57C4.506,50.9,6.766,46.184,8.85,41.39c2.136-4.916,4.179-9.872,6.274-14.806,2.262-5.327,4.517-10.657,6.816-15.967.746-1.723,1.557-3.425,2.46-5.069A14.833,14.833,0,0,0,26.126,0L27.8,0c1.52,2.052,1.016,4.428,1.081,6.714-.2,4.163.407,8.348-.357,12.5A7.754,7.754,0,0,1,28,21.427c-2.707,3.23-4.723,6.935-7.092,10.386-3.054,4.448-5.969,8.988-9.021,13.436C8.245,50.557,4.914,56.072,1.157,61.3.853,61.725.78,62.425,0,62.3Z" transform="translate(1919.792 580.465) rotate(90)"/>
        <path id="Path_1640" data-name="Path 1640" class="cls-14" d="M0,.141A.613.613,0,0,0,.4.13.474.474,0,0,1,.938.049c.94,1.021,1.115,2.508,2.126,3.487a52.69,52.69,0,0,0,7.466,10.939l.842,1.236c.375.615.875,1.135,1.293,1.717,3.709,3.454,7.135,7.226,11.355,10.107a28.047,28.047,0,0,0,4.154,3.3c.486.386.887.639.5,1.289-4.513-3.139-9.132-6.149-12.66-10.477-.423-.288-.792-.649-1.24-.9A71.281,71.281,0,0,1,2.293,4.278,17.032,17.032,0,0,0,0,.576Q0,.359,0,.141Z" transform="translate(1873.229 449.412) rotate(90)"/>
        <path id="Path_1642" data-name="Path 1642" class="cls-15" d="M9.846,44.625.16,44.657a2.266,2.266,0,0,1,.371-2.166c3.49-6.664,6.806-13.416,10.161-20.148a130.049,130.049,0,0,0,9.277-9.254A119.991,119.991,0,0,0,31.29,1.319,4.785,4.785,0,0,1,32.6,0c.841.953.292,1.841-.163,2.7Q21.922,22.55,11.4,42.395A7.441,7.441,0,0,1,9.846,44.625Z" transform="translate(1872.25 520.05) rotate(90)"/>
        <path id="Path_1643" data-name="Path 1643" class="cls-16" d="M0,.441.429,0A32.543,32.543,0,0,1,4.2,8.454c.134.448-.073.555-.471.469L2.894,6.781C2.288,4.5.885,2.591,0,.441Z" transform="translate(1913.155 505.06) rotate(90)"/>
        <path id="Path_1644" data-name="Path 1644" class="cls-17" d="M0,.469.471,0C1.742,2.214,1.713,4.782,2.145,7.245Z" transform="translate(1904.7 508.791) rotate(90)"/>
        <path id="Path_1647" data-name="Path 1647" class="cls-18" d="M0,51.351a4.746,4.746,0,0,1,.275-1.2Q6.8,37.83,13.364,25.532q4.435-8.3,8.918-16.583a3.962,3.962,0,0,0,.472-2.223C24.341,4.288,26.437,2.265,28.237,0,28.3,3.608,26.6,6.728,25.315,9.923,23.5,14.447,21.908,19.045,20.2,23.6c-1.044,2.783-2.091,5.559-2.921,8.414.291,1.906-.981,3.309-1.738,4.8-2.061,4.043-4.01,8.145-6.184,12.13-.334.612-.6,1.276-1.331,1.545-1.076.575-2.28.385-3.421.571-.667.333-1.459-.121-2.108.33Z" transform="translate(1878.977 529.896) rotate(90)"/>
        <path id="Path_1648" data-name="Path 1648" class="cls-19" d="M6.756,40.453c2.961-4.027,5.359-8.42,8.3-12.483,2.309-3.195,4.284-6.688,6.486-9.989,1.614-2.42,2.883-5.08,4.956-7.21,1.618-1.662,2.161-4.031,3.517-5.89C31.267,3.158,32.286,1.24,34.116,0c.733,1.225.027,2.382-.161,3.563A64.235,64.235,0,0,1,27.906,22.68a91.417,91.417,0,0,1-10.677,17.1A93.358,93.358,0,0,1,6.6,50.483a42.444,42.444,0,0,1-4.7,3.748c-.545.409-1.1.879-1.877.591A5.733,5.733,0,0,1,1.033,51.3c1.748-3.155,3.281-6.429,4.916-9.647A11.494,11.494,0,0,1,6.756,40.453Z" transform="translate(1897.948 573.709) rotate(90)"/>
        <path id="Path_1650" data-name="Path 1650" class="cls-20" d="M0,56.816l9.253-18.47c2.006-1.8,3.239-4.2,4.594-6.42C18.894,23.661,24.261,15.6,29.43,7.419c1.268-2.007,2.43-4.081,3.614-6.14C33.4.66,33.674,0,34.537,0c-2.752,6.8-6.184,13.284-9.131,19.99C23.1,25.238,20.659,30.431,18.25,35.624c-2.024,4.362-3.957,8.8-6.276,13.039a22.841,22.841,0,0,0-2.3,6.043L.4,56.919Q.2,56.874,0,56.816Z" transform="translate(1885.306 537.922) rotate(90)"/>
        <path id="Path_1655" data-name="Path 1655" class="cls-21" d="M18.682,90.048A74.927,74.927,0,0,1,.555,83.438c-1-.725-.423-1.475-.016-2.2C5,73.314,9.08,65.184,13.413,57.192q5.2-9.6,10.3-19.245c4.981-9.4,10.086-18.727,15-28.161C40.422,6.5,42.15,3.223,43.977,0H65.468c.662.776.159,1.457-.2,2.118C59.275,13,53.557,24.02,47.716,34.977c-5.509,10.336-11.15,20.6-16.546,31-3.393,6.538-6.849,13.042-10.491,19.446A36.111,36.111,0,0,0,18.682,90.048Z" transform="translate(1919.791 487.226) rotate(90)"/>
        <path id="Path_1628" data-name="Path 1628" class="cls-22" d="M1.3,0H22.818c.665,1.2-.056,2.2-.592,3.116-3.182,5.435-5.892,11.124-9.06,16.572C10.676,23.971,8.785,28.6,6.2,32.852c-.442.725-.7,1.75-1.889,1.679C3,33.272,2.916,31.489,2.531,29.911A69.188,69.188,0,0,1,.275,15.441C.6,13.208-.126,11.014.02,8.787.567,6.894.22,4.955.3,3.038A3.958,3.958,0,0,1,1.3,0Z" transform="translate(1919.791 441.341) rotate(90)"/>
        <path id="Path_1633" data-name="Path 1633" class="cls-23" d="M.079,12.558A87.715,87.715,0,0,1,.378,0L1.3,0c.727,1.822-.236,3.642-.008,5.463.231,1.965-.547,3.922-.038,5.888a3.275,3.275,0,0,1-.123,1.43C.633,13.39.349,13.009.079,12.558Z" transform="translate(1919.792 440.537) rotate(90)"/>
        <path id="Path_1641" data-name="Path 1641" class="cls-24" d="M.75.379A2.2,2.2,0,0,1,0,2.517Q.023,1.258.046,0Z" transform="translate(1907.233 440.57) rotate(90)"/>
        <path id="Path_1645" data-name="Path 1645" class="cls-25" d="M1.665,4.259l-.4-.049C1.457,2.625-.142,1.573.01,0c1.1.718.819,2.421,2.13,2.99q-.018.414-.037.828C1.98,3.988,1.937,4.237,1.665,4.259Z" transform="translate(1877.311 448.553) rotate(90)"/>
        <path id="Path_1646" data-name="Path 1646" class="cls-26" d="M0,.442.437,0q.91,1.9,1.82,3.8C.876,3.1.858,1.489,0,.442Z" transform="translate(1873.493 450.219) rotate(90)"/>
        <path id="Path_1653" data-name="Path 1653" class="cls-27" d="M.7,10.069C-.153,8.939.861,7.456,0,6.327Q.015,3.163.029,0C.707,1.07.194,2.263.383,3.384.5,5.612.974,7.823.7,10.069Z" transform="translate(1914.343 441.464) rotate(90)"/>
        <path id="Path_1654" data-name="Path 1654" class="cls-28" d="M1.652,4.666A6.773,6.773,0,0,1,0,0L.75.39C.174,2,1.864,3.133,1.652,4.666Z" transform="translate(1881.958 446.923) rotate(90)"/>
      </g>
    </g>
    <g id="Group_242" data-name="Group 242">
      <g id="Mask_Group_3" data-name="Mask Group 3" class="cls-29" transform="translate(-19582.73 1152)">
        <circle id="Ellipse_20" data-name="Ellipse 20" class="cls-30" cx="54.5" cy="54.5" r="54.5" transform="translate(21216.73 -1152)"/>
        <path id="Path_1750" data-name="Path 1750" class="cls-31" d="M-44.075-14.071C-16.825-28.753,109,1.074,109,1.074V118.382S-51.94,129.54-110.2,85.631.5,70.406.5,41.079-71.325.611-44.075-14.071Z" transform="translate(21393.73 -1151)"/>
      </g>
      <circle id="Ellipse_12" data-name="Ellipse 12" class="cls-32" cx="33" cy="33" r="33" transform="translate(1771 18)"/>
    </g>
  </g>
</svg>
